<?xml version="1.0" standalone="no"?>
<!DOCTYPE svg PUBLIC "-//W3C//DTD SVG 1.1//EN" "http://www.w3.org/Graphics/SVG/1.1/DTD/svg11.dtd" >
<svg xmlns="http://www.w3.org/2000/svg">
<metadata>Generated by IcoMoon</metadata>
<defs>
<font id="icomoon" horiz-adv-x="1024">
<font-face units-per-em="1024" ascent="960" descent="-64" />
<missing-glyph horiz-adv-x="1024" />
<glyph unicode="&#x20;" horiz-adv-x="512" d="" />
<glyph unicode="&#xe900;" glyph-name="multimedia_puzzle_multimedia_interface_toy_piece_multimedia_toy_puzzle_piece_multimedia_toy_puzzle_piece_multimedia_toy_puzzle_piece_piece_puzzle_toy" d="M709.34 38.667h-214c-16.497 0.094-29.834 13.489-29.834 30 0 7.072 2.447 13.572 6.54 18.701l-0.047-0.060c8.998 11.227 14.441 25.642 14.441 41.328 0 0.103 0 0.205-0.001 0.308v-0.016c-0.652 36.601-30.475 66.021-67.17 66.021s-66.518-29.42-67.169-65.96l-0.001-0.061c0-0.087-0.001-0.189-0.001-0.292 0-15.686 5.443-30.101 14.542-41.459l-0.102 0.131c4.047-5.068 6.494-11.568 6.494-18.64 0-16.569-13.431-30-30-30-0.026 0-0.052 0-0.078 0h-213.996c-16.569 0-30 13.431-30 30v0 275.88c0 16.569 13.431 30 30 30 6.788 0 13.049-2.254 18.075-6.055l-0.075 0.055c11.099-8.415 25.141-13.48 40.367-13.48 37.102 0 67.18 30.078 67.18 67.18s-30.078 67.18-67.18 67.18c-15.225 0-29.268-5.065-40.534-13.602l0.168 0.122c-4.951-3.746-11.212-6-18-6-16.569 0-30 13.431-30 30v0 149c0 16.569 13.431 30 30 30v0h168.32c-3.395 10.924-5.35 23.483-5.35 36.499 0 70.24 56.94 127.18 127.18 127.18s127.18-56.94 127.18-127.18c0-13.016-1.955-25.576-5.588-37.401l0.238 0.901h168.32c16.569 0 30-13.431 30-30v0-104.38c10.392 3.060 22.331 4.82 34.681 4.82 70.24 0 127.18-56.94 127.18-127.18s-56.94-127.18-127.18-127.18c-12.35 0-24.289 1.76-35.58 5.044l0.899-0.224v-231.18c0 0 0 0 0 0 0-16.54-13.386-29.954-29.916-30h-0.004zM542.7 98.667h136.64v251.040c0 16.568 13.432 29.999 30 29.999 7.697 0 14.717-2.899 20.028-7.664l-0.028 0.025c11.82-10.575 27.511-17.040 44.712-17.040 37.102 0 67.18 30.078 67.18 67.18s-30.078 67.18-67.18 67.18c-17.201 0-32.892-6.465-44.776-17.097l0.065 0.057c-5.283-4.741-12.303-7.639-20-7.639-16.568 0-30 13.431-30 29.999v0 124.24h-189.34c-16.566 0.003-29.994 13.433-29.994 30 0 7.955 3.096 15.186 8.149 20.555l-0.014-0.015c11.315 11.996 18.27 28.213 18.27 46.054 0 37.102-30.078 67.18-67.18 67.18s-67.18-30.078-67.18-67.18c0-17.841 6.955-34.058 18.301-46.087l-0.031 0.033c5.038-5.354 8.134-12.585 8.134-20.54 0-16.567-13.428-29.997-29.994-30h-189.42v-72.72c8.524 2.009 18.311 3.16 28.367 3.16 0.012 0 0.024 0 0.035 0h-0.002c70.18-0.079 127.042-56.989 127.042-127.18 0-70.24-56.94-127.18-127.18-127.18-10.020 0-19.77 1.159-29.122 3.35l0.861-0.17v-199.54h136.64c-2.332 9.108-3.67 19.564-3.67 30.332 0 70.24 56.94 127.18 127.18 127.18s127.18-56.94 127.18-127.18c0-10.768-1.338-21.224-3.858-31.21l0.188 0.878z" />
<glyph unicode="&#xe901;" glyph-name="photo_media_multimedia_photography_photo_camera_image_image_camera_photo_photography_multimedia_media_image_camera_photo_photography_multimedia_media_image_camera_photo_photography_multimedia_media_photography_image_media_interface_multimedi" d="M510.26 114.807c-123.712 0-224 100.288-224 224s100.288 224 224 224c123.712 0 224-100.288 224-224v0c-0.102-123.671-100.329-223.898-223.99-224h-0.010zM510.26 502.667c-90.575 0-164-73.425-164-164s73.425-164 164-164c90.575 0 164 73.425 164 164v0c-0.068 90.547-73.453 163.932-163.993 164h-0.007zM274 142.667c-0.029 0-0.062 0-0.096 0-1.001 0-1.991 0.051-2.966 0.15l0.123-0.010c-0.98 0.1-2 0.26-2.92 0.44s-2 0.44-2.86 0.72c-1.138 0.347-2.053 0.687-2.945 1.071l0.185-0.071c-1.082 0.444-1.95 0.859-2.793 1.316l0.153-0.076c-1.011 0.54-1.842 1.044-2.644 1.586l0.104-0.066c-0.8 0.54-1.6 1.12-2.36 1.74s-1.5 1.3-2.2 2-1.36 1.44-2 2.2-1.2 1.56-1.74 2.36c-0.47 0.696-0.967 1.527-1.423 2.383l-0.077 0.157q-0.68 1.3-1.26 2.64c-0.38 0.9-0.7 1.84-1 2.78s-0.52 1.88-0.72 2.84-0.34 2-0.44 2.92c-0.077 0.79-0.121 1.707-0.121 2.635 0 0.1 0.001 0.2 0.002 0.3v-0.015c0 0.029 0 0.063 0 0.097 0 1.008 0.051 2.005 0.15 2.987l-0.010-0.124c0.1 0.96 0.26 2 0.44 2.9s0.44 2 0.72 2.86 0.62 1.86 1 2.76 0.8 1.78 1.26 2.64c0.533 1.013 1.030 1.844 1.567 2.646l-0.067-0.106c0.54 0.8 1.12 1.6 1.74 2.36s1.3 1.5 2 2.2 1.44 1.36 2.2 2 1.56 1.2 2.36 1.74c1.48 0.981 3.182 1.904 4.964 2.677l0.216 0.083c0.9 0.38 1.84 0.7 2.76 1s2 0.52 2.86 0.72 2 0.34 2.92 0.44c0.884 0.086 1.911 0.135 2.95 0.135s2.066-0.049 3.079-0.145l-0.129 0.010c0.96-0.1 2-0.26 2.9-0.44s2-0.44 2.84-0.72 1.88-0.62 2.78-1 1.78-0.8 2.64-1.26c1.864-1.002 3.468-2.077 4.958-3.285l-0.058 0.045c0.76-0.62 1.5-1.3 2.18-2s1.36-1.44 2-2.2 1.2-1.56 1.74-2.36c0.47-0.696 0.967-1.527 1.423-2.383l0.077-0.157q0.68-1.3 1.26-2.64c0.38-0.9 0.7-1.84 1-2.76s0.52-1.9 0.72-2.86 0.34-2 0.44-2.9c0.077-0.799 0.121-1.727 0.121-2.666 0-0.103-0.001-0.206-0.002-0.31v0.016c0-0.032 0-0.070 0-0.109 0-0.997-0.051-1.982-0.15-2.953l0.010 0.122c-0.1-0.98-0.26-2-0.44-2.92s-0.44-2-0.72-2.84-0.62-1.88-1-2.78-0.8-1.78-1.26-2.64c-0.533-1.013-1.030-1.844-1.567-2.646l0.067 0.106c-0.54-0.8-1.14-1.6-1.74-2.36s-1.3-1.5-2-2.2-1.42-1.36-2.18-2c-1.433-1.157-3.036-2.237-4.729-3.173l-0.171-0.087c-0.86-0.44-1.74-0.88-2.64-1.24-0.722-0.32-1.644-0.66-2.588-0.949l-0.192-0.051c-0.92-0.28-1.88-0.52-2.84-0.72s-2-0.34-2.9-0.44c-0.799-0.077-1.727-0.121-2.666-0.121-0.103 0-0.206 0.001-0.31 0.002h0.016zM882.26 15.027h-744c-16.569 0-30 13.431-30 30v0 535.28c0 16.569 13.431 30 30 30v0h161.22l48 95.8c5.033 9.886 15.127 16.544 26.778 16.56h272.002c0.006 0 0.012 0 0.019 0 11.669 0 21.782-6.662 26.742-16.39l0.079-0.17 48-95.8h161.2c16.569 0 30-13.431 30-30v0-535.28c0 0 0 0 0 0 0-16.569-13.431-30-30-30-0.014 0-0.028 0-0.042 0h0.002zM168.26 75.027h684v475.28h-149.72c-11.668 0-21.781 6.662-26.741 16.39l-0.079 0.17-48 95.8h-234.92l-48-95.8c-5.036-9.892-15.139-16.552-26.799-16.56h-149.741z" />
<glyph unicode="&#xe902;" glyph-name="multimedia_folder_multimedia_file_document_interface_file_document_multimedia_folder_interface_multimedia_document_folder_interface_multimedia_document_folder_document_folder_multimedia_document_folder_folder_document_multimedia" d="M798 38.667h-568c-65.142 0.068-117.932 52.858-118 117.993v290.007c0.068 65.142 52.858 117.932 117.993 118h199.727c32.033 0 58 25.967 58 58v0 0c0.068 65.142 52.858 117.932 117.993 118h192.287c65.142-0.068 117.932-52.858 118-117.993v-466.007c-0.080-65.138-52.863-117.92-117.992-118h-0.008zM230 504.667c-32.033 0-58-25.967-58-58v0-290c0-32.033 25.967-58 58-58v0h568c32.033 0 58 25.967 58 58v0 466c0 32.033-25.967 58-58 58v0h-192.28c-32.033 0-58-25.967-58-58v0c-0.080-65.138-52.863-117.92-117.992-118h-0.008zM242 504.667c-16.569 0-30 13.431-30 30v0 278c0 16.569 13.431 30 30 30v0h544c16.569 0 30-13.431 30-30v0-102c0-16.569-13.431-30-30-30s-30 13.431-30 30v0 72h-484v-248c0-16.569-13.431-30-30-30v0z" />
<glyph unicode="&#xe903;" glyph-name="folder_folder_document_multimedia_interface_file_document_folder_interface_multimedia_folder_interface_document_multimedia_document_multimedia_folder_document_multimedia_folder_document_multimedia_multimedia_document_file_folder" d="M794.26 38.667h-568c-65.138 0.080-117.92 52.863-118 117.992v392.008c0.080 65.138 52.863 117.92 117.992 118h199.748c32.033 0 58 25.967 58 58v0c0.068 65.142 52.858 117.932 117.993 118h192.267c65.142-0.068 117.932-52.858 118-117.993v-568.007c-0.068-65.142-52.858-117.932-117.993-118h-0.007zM226.26 606.667c-32.033 0-58-25.967-58-58v0-392c0-32.033 25.967-58 58-58v0h568c32.033 0 58 25.967 58 58v0 568c0 32.033-25.967 58-58 58v0h-192.26c-32.033 0-58-25.967-58-58v0c-0.080-65.138-52.863-117.92-117.992-118h-0.008z" />
<glyph unicode="&#xe904;" glyph-name="tab_multimedia_book_bookmark_tab_interface_media_multimedia_media_bookmark_interface_tab_book_multimedia_tab_media_book_bookmark_media_tab_multimedia_book_bookmark_multimedia_media_book_bookmark_bookmark_book_multimedia_tab_media" d="M786 38.667c-5.494 0.001-10.64 1.486-15.061 4.076l0.141-0.076-257.080 147.42-257.080-147.42c-4.284-2.498-9.43-3.973-14.92-3.973-16.559 0-29.985 13.416-30 29.972v744.001c0 16.569 13.431 30 30 30v0h544c16.569 0 30-13.431 30-30v0-744c0-16.569-13.431-30-30-30v0zM514 254.667c5.494-0.001 10.64-1.486 15.061-4.076l-0.141 0.076 227.080-130.2v662.2h-484v-662.2l227.080 130.2c4.28 2.514 9.426 3.999 14.92 4v0z" />
<glyph unicode="&#xe905;" glyph-name="volume_sound_multimedia_volume_multimedia_interface_speaker_multimedia_volume_sound_speaker_multimedia_volume_sound_speaker_sound_speaker_multimedia_volume_sound_speaker" d="M358 234.667h-151.3c-54.337 0.057-98.372 44.085-98.44 98.414v203.166c0.068 54.335 44.103 98.363 98.435 98.42h151.305c16.569 0 30-13.431 30-30v0-340c0-16.569-13.431-30-30-30v0zM206.7 574.667c-21.214-0.023-38.406-17.208-38.44-38.417v-203.163c0.034-21.212 17.226-38.397 38.438-38.42h121.302v280zM590 104.827h-98.76c-90.114 0.102-163.138 73.126-163.24 163.23v333.21c0.102 90.114 73.126 163.138 163.23 163.24h98.77c16.569 0 30-13.431 30-30v0-599.68c0-16.569-13.431-30-30-30v0zM491.24 704.507c-56.99-0.068-103.172-46.25-103.24-103.233v-333.207c0.068-56.99 46.25-103.172 103.233-103.24h68.767v539.68zM712.7 319.887c-16.566 0.004-29.994 13.434-29.994 30 0 8.288 3.361 15.79 8.793 21.22l169.56 169.56c5.429 5.426 12.928 8.783 21.21 8.783 16.57 0 30.003-13.433 30.003-30.003 0-8.287-3.36-15.79-8.792-21.22l-169.48-169.56c-5.428-5.425-12.926-8.78-21.207-8.78-0.033 0-0.066 0-0.099 0h0.005zM882.26 319.887c-0.015 0-0.033 0-0.052 0-8.263 0-15.741 3.356-21.148 8.779l-169.561 169.561c-5.426 5.433-8.781 12.935-8.781 21.22 0 16.586 13.445 30.031 30.031 30.031 8.3 0 15.814-3.367 21.25-8.811v0l169.56-169.56c5.433-5.43 8.794-12.932 8.794-21.22 0-16.569-13.431-30-30-30-0.005 0-0.010 0-0.014 0h0.001z" />
<glyph unicode="&#xe906;" glyph-name="media_speaker_volume_volume_speaker_sound_media_multimedia_music_sound_speaker_volume_multimedia_music_media_sound_speaker_volume_multimedia_music_media_multimedia_sound_music_sound_volume_multimedia_speaker_interface_media_music" d="M358 162.667h-151.3c-54.337 0.057-98.372 44.085-98.44 98.414v203.166c0.068 54.335 44.103 98.363 98.435 98.42h151.305c16.569 0 30-13.431 30-30v0-340c0-16.569-13.431-30-30-30v0zM206.7 502.667c-21.214-0.023-38.406-17.208-38.44-38.417v-203.163c0.034-21.212 17.226-38.397 38.438-38.42h121.302v280zM590 32.827h-98.76c-90.114 0.102-163.138 73.126-163.24 163.23v333.21c0.102 90.114 73.126 163.138 163.23 163.24h98.77c16.569 0 30-13.431 30-30v0-599.68c0-16.569-13.431-30-30-30v0zM491.24 632.507c-56.99-0.068-103.172-46.25-103.24-103.233v-333.207c0.068-56.99 46.25-103.172 103.233-103.24h68.767v539.68zM717.14 235.527c-16.506 0.083-29.854 13.482-29.854 30 0 8.248 3.329 15.719 8.716 21.142l-0.002-0.002c19.455 19.448 31.489 46.319 31.489 76s-12.034 56.552-31.488 76v0c-5.431 5.431-8.79 12.933-8.79 21.22 0 16.574 13.436 30.010 30.010 30.010 8.287 0 15.789-3.359 21.22-8.79v0c30.244-30.312 48.946-72.152 48.946-118.36s-18.702-88.048-48.949-118.363l0.003 0.003c-5.436-5.473-12.966-8.86-21.286-8.86-0.005 0-0.010 0-0.015 0h0.001zM809 143.667c-0.004 0-0.009 0-0.014 0-16.569 0-30 13.431-30 30 0 8.288 3.361 15.79 8.793 21.22v0c42.875 42.968 69.388 102.278 69.388 167.78s-26.513 124.813-69.392 167.784l0.004-0.004c-5.431 5.431-8.79 12.933-8.79 21.22 0 16.574 13.436 30.010 30.010 30.010 8.287 0 15.789-3.359 21.22-8.79v0c115.9-116 115.9-304.52 0-420.44-5.428-5.425-12.926-8.78-21.206-8.78-0.005 0-0.010 0-0.014 0h0.001z" />
<glyph unicode="&#xe907;" glyph-name="multimedia_book_reading_multimedia_multimedia_book_reading_book_book_reading_multimedia_reading_multimedia_reading_book_interface" d="M321.82 115.647c-16.569 0-30 13.431-30 30v0 590c0.057 59.076 47.926 106.952 106.994 107.020h448.186c16.569 0 30-13.431 30-30v0-590c0-16.569-13.431-30-30-30s-30 13.431-30 30v0 560h-418.18c-25.941-0.023-46.966-21.040-47-46.977v-590.003c0-0.012 0-0.026 0-0.040 0-16.569-13.431-30-30-30v0zM847 38.667h-448.18c-59.094 0-107 47.906-107 107s47.906 107 107 107v0h448.18c16.569 0 30-13.431 30-30s-13.431-30-30-30v0h-448.18c-25.957 0-47-21.043-47-47s21.043-47 47-47v0h448.18c16.569 0 30-13.431 30-30s-13.431-30-30-30v0zM812.28 43.507c-16.569 0-30 13.431-30 30v0 149.16c0 16.569 13.431 30 30 30s30-13.431 30-30v0-149.14c0-0.006 0-0.013 0-0.020 0-16.569-13.431-30-30-30v0zM668.4 342.147c-13.623 0.012-25.119 9.103-28.767 21.548l-0.053 0.212-55.16 193.060-55.18-193.060c-3.508-12.958-15.161-22.334-29.004-22.334-16.569 0-30 13.431-30 30 0 3.146 0.484 6.178 1.382 9.027l-0.058-0.213 84 294c3.699 12.672 15.211 21.773 28.85 21.773s25.151-9.101 28.797-21.561l0.053-0.212 84-294c0.732-2.468 1.153-5.303 1.153-8.236 0-13.631-9.091-25.139-21.541-28.791l-0.212-0.053c-2.45-0.736-5.266-1.16-8.18-1.16-0.028 0-0.056 0-0.084 0h0.004zM647.14 422.187h-123.86c-16.569 0-30 13.431-30 30s13.431 30 30 30v0h123.86c16.569 0 30-13.431 30-30s-13.431-30-30-30v0z" />
<glyph unicode="&#xe908;" glyph-name="airplane_airplane_multimedia_paper-airplane_send_plane_interface_multimedia_airplane_send_paper-airplane_plane_multimedia_airplane_send_paper-airplane_plane_multimedia_airplane_send_paper-airplane_plane_plane_paper-airplane_send_multimedia" d="M582.96 38.787c-11.787 0.008-21.983 6.812-26.882 16.705l-0.078 0.175-141 289.86-289.86 140.98c-10.060 4.985-16.855 15.182-16.855 26.967 0 12.554 7.711 23.307 18.655 27.781l0.2 0.072 743.82 299.18c3.319 1.376 7.174 2.175 11.215 2.175 16.569 0 30-13.431 30-30 0-4.041-0.799-7.896-2.248-11.415l0.073 0.2-299.2-743.88c-4.431-10.798-14.682-18.351-26.748-18.779l-0.052-0.001zM212.2 510.787l238.36-116c6.067-2.996 10.864-7.793 13.782-13.685l0.078-0.175 116-238.36 247.58 616.1zM437.44 337.967c-16.566 0.004-29.994 13.434-29.994 30 0 8.288 3.361 15.79 8.793 21.22l444.7 444.7c5.429 5.426 12.928 8.783 21.21 8.783 16.57 0 30.003-13.433 30.003-30.003 0-8.287-3.36-15.79-8.792-21.22l-444.7-444.78c-5.42-5.377-12.885-8.7-21.126-8.7-0.033 0-0.066 0-0.099 0h0.005z" />
<glyph unicode="&#xe909;" glyph-name="lock_multimedia_open_interface_security_protection_multimedia_open_protection_security_lock_multimedia_open_protection_security_lock_multimedia_open_protection_security_lock_lock_security_protection_open_multimedia" d="M760 38.667h-474c-16.569 0-30 13.431-30 30v0 442.68c0 16.569 13.431 30 30 30v0h474c16.569 0 30-13.431 30-30v0-442.68c0-16.569-13.431-30-30-30v0zM316 98.667h414v382.68h-414zM703.32 481.347h-360.5c-16.569 0-30 13.431-30 30s13.431 30 30 30v0h330.5v91.080c-0.979 82.237-67.873 148.526-150.25 148.526s-149.271-66.289-150.249-148.434l-0.001-0.093c0-16.569-13.431-30-30-30s-30 13.431-30 30v0c1.16 115.238 94.848 208.209 210.25 208.209s209.090-92.971 210.249-208.1l0.001-0.11v-121.080c0-16.569-13.431-30-30-30v0zM523.080 233.327c-51.362 0-93 41.638-93 93s41.638 93 93 93c51.362 0 93-41.638 93-93v0c-0.057-51.34-41.66-92.943-92.995-93h-0.005zM523.080 359.327c-18.225 0-33-14.775-33-33s14.775-33 33-33c18.225 0 33 14.775 33 33v0c-0.023 18.216-14.784 32.977-32.998 33h-0.002zM523.080 160.667c-16.569 0-30 13.431-30 30v0 72.66c0 16.569 13.431 30 30 30s30-13.431 30-30v0-72.66c0-16.569-13.431-30-30-30v0z" />
<glyph unicode="&#xe90a;" glyph-name="lock_protection_close_multimedia_security_lock_lock_security_close_protection_multimedia_security_protection_multimedia_close_lock_security_multimedia_close_protection_protection_security_interface_lock_multimedia_close" d="M760 38.667h-474c-16.569 0-30 13.431-30 30v0 442.68c0 16.569 13.431 30 30 30v0h474c16.569 0 30-13.431 30-30v0-442.68c0-16.569-13.431-30-30-30v0zM316 98.667h414v382.68h-414zM703.32 481.347h-360.5c-16.569 0-30 13.431-30 30v0 121.080c1.16 115.238 94.848 208.209 210.25 208.209s209.090-92.971 210.249-208.1l0.001-0.11v-121.080c0-16.569-13.431-30-30-30v0zM372.82 541.347h300.5v91.080c-0.979 82.237-67.873 148.526-150.25 148.526s-149.271-66.289-150.249-148.434l-0.001-0.093zM523.080 233.327c-51.362 0-93 41.638-93 93s41.638 93 93 93c51.362 0 93-41.638 93-93v0c-0.057-51.34-41.66-92.943-92.995-93h-0.005zM523.080 359.327c-18.225 0-33-14.775-33-33s14.775-33 33-33c18.225 0 33 14.775 33 33v0c-0.023 18.216-14.784 32.977-32.998 33h-0.002zM523.080 160.667c-16.569 0-30 13.431-30 30v0 72.66c0 16.569 13.431 30 30 30s30-13.431 30-30v0-72.66c0-16.569-13.431-30-30-30v0z" />
<glyph unicode="&#xe90b;" glyph-name="interface_trash_multimedia_trash_basket_multimedia_basket_trash_trash_basket_multimedia_multimedia_trash_basket_interface_multimedia_basket_trash_basket_multimedia" d="M713.3 38.667h-370.36c-45.131 0.113-81.687 36.669-81.8 81.789v576.891c0 16.569 13.431 30 30 30v0h474c16.569 0 30-13.431 30-30v0-576.88c-0.114-45.145-36.692-81.709-81.831-81.8h-0.009zM321.14 667.347v-546.88c0.011-12.035 9.765-21.789 21.799-21.8h370.361c12.044 0 21.809 9.758 21.82 21.799v546.881zM654.12 667.347h-252c-16.569 0-30 13.431-30 30v0 54.52c0.068 49.387 40.091 89.403 89.475 89.46h133.045c49.389-0.057 89.412-40.073 89.48-89.453v-54.527c0-16.569-13.431-30-30-30v0zM432.12 727.347h192v24.52c-0.023 16.268-13.21 29.449-29.479 29.46h-133.041c-16.261-0.023-29.437-13.199-29.46-29.458v-0.002zM528.12 153.507c-16.569 0-30 13.431-30 30v0 398.98c0 16.569 13.431 30 30 30s30-13.431 30-30v0-398.98c0-16.569-13.431-30-30-30v0zM419.8 153.507c-16.569 0-30 13.431-30 30v0 398.98c0 16.569 13.431 30 30 30s30-13.431 30-30v0-398.98c0-16.569-13.431-30-30-30v0zM636.46 153.507c-16.569 0-30 13.431-30 30v0 398.98c0 16.569 13.431 30 30 30s30-13.431 30-30v0-398.98c0-16.569-13.431-30-30-30v0zM811.62 667.347h-566.98c-16.569 0-30 13.431-30 30s13.431 30 30 30v0h566.98c16.569 0 30-13.431 30-30s-13.431-30-30-30v0z" />
<glyph unicode="&#xe90c;" glyph-name="multimedia_multimedia_upload_multimedia_multimedia_interface_upload_upload_upload_multimedia_upload" d="M648.6 163.287h-276.6c-16.569 0-30 13.431-30 30v0 273.78h-112.38c-0.003 0-0.006 0-0.009 0-16.569 0-30 13.431-30 30 0 7.744 2.934 14.803 7.752 20.126l-0.023-0.026 280.66 311.3c5.513 6.103 13.456 9.921 22.29 9.921s16.777-3.819 22.267-9.895l0.023-0.026 280.62-311.3c4.795-5.297 7.729-12.356 7.729-20.1 0-16.569-13.431-30-30-30-0.003 0-0.006 0-0.010 0h-112.32v-273.78c0-16.569-13.431-30-30-30v0zM402 223.287h216.6v273.78c0 16.569 13.431 30 30 30v0h74.88l-213.22 236.5-213.2-236.5h74.94c16.569 0 30-13.431 30-30v0zM781.68 34.367h-542.82c-72.096 0.080-130.52 58.504-130.6 130.592v76.348c0 16.569 13.431 30 30 30s30-13.431 30-30v0-76.34c0.045-38.973 31.627-70.555 70.596-70.6h542.824c38.969 0.045 70.546 31.629 70.58 70.597v76.343c0 16.569 13.431 30 30 30s30-13.431 30-30v0-76.34c-0.080-72.089-58.492-130.509-130.571-130.6h-0.009z" />
<glyph unicode="&#xe90d;" glyph-name="pc_monitor_screen_pc_computer_multimedia_multimedia_computer_pc_screen_monitor_multimedia_computer_pc_screen_monitor_computer_pc_multimedia_screen_monitor_screen_interface_monitor_computer_multimedia" d="M826 232.367h-631.52c-47.593 0.046-86.163 38.609-86.22 86.195v419.385c0.057 47.595 38.625 86.163 86.214 86.22h631.526c47.591-0.057 86.155-38.627 86.2-86.216v-419.384c-0.046-47.589-38.611-86.154-86.196-86.2h-0.004zM194.48 764.167c-14.476-0.011-26.209-11.744-26.22-26.219v-419.381c0.023-14.468 11.751-26.189 26.219-26.2h631.521c14.461 0.023 26.177 11.739 26.2 26.198v419.382c-0.011 14.469-11.732 26.197-26.198 26.22h-0.002zM648.26 127.367h-276c-16.554 0.020-29.965 13.444-29.965 30 0 3.839 0.721 7.51 2.035 10.884l-0.070-0.204 40 105c4.424 11.381 15.284 19.305 27.998 19.32h196.002c12.716-0.015 23.576-7.939 27.93-19.116l0.070-0.204 40-105c1.244-3.17 1.965-6.841 1.965-10.68 0-16.556-13.412-29.98-29.964-30h-0.002zM415.8 187.367h188.92l-17.14 45h-154.62zM709.22 127.367h-398c-16.569 0-30 13.431-30 30s13.431 30 30 30v0h398c16.569 0 30-13.431 30-30s-13.431-30-30-30v0zM882.26 331.347h-744c-16.569 0-30 13.431-30 30s13.431 30 30 30v0h744c16.569 0 30-13.431 30-30s-13.431-30-30-30v0z" />
<glyph unicode="&#xe90e;" glyph-name="multimedia_multimedia_link_linked_chain_interface_chain_linked_link_multimedia_interface_linked_link_multimedia_linked_link_chain_chain_link_linked_multimedia_chain_link_linked_multimedia_chain" d="M299.34 152.667c-0.016 0-0.035 0-0.054 0-105.475 0-190.98 85.505-190.98 190.98 0 52.726 21.367 100.462 55.914 135.020l129.4 129.4c34.602 34.517 82.358 55.861 135.1 55.861s100.499-21.344 135.104-55.865l-0.004 0.004c34.523-34.602 55.871-82.363 55.871-135.11s-21.348-100.507-55.875-135.113l-129.377-129.377c-34.468-34.476-82.090-55.8-134.692-55.8-0.144 0-0.287 0-0.431 0h0.022zM428.72 604.047c-0.081 0-0.176 0-0.272 0-36.115 0-68.807-14.662-92.446-38.358l-129.403-129.403c-23.711-23.719-38.376-56.482-38.376-92.67 0-72.391 58.685-131.076 131.076-131.076 36.203 0 68.978 14.677 92.7 38.406l129.4 129.4c23.719 23.711 38.39 56.472 38.39 92.66 0 72.36-58.66 131.020-131.020 131.020-0.018 0-0.035 0-0.053 0h0.003zM591.8 217.247c-0.035 0-0.077 0-0.119 0-17.113 0-33.697 2.262-49.47 6.504l1.329-0.304c-12.441 3.845-21.323 15.244-21.323 28.718 0 16.569 13.431 30 30 30 2.312 0 4.563-0.262 6.724-0.757l-0.202 0.039c9.92-2.693 21.311-4.239 33.062-4.239 36.195 0 68.963 14.675 92.678 38.399l129.4 129.38c23.719 23.719 38.389 56.486 38.389 92.68 0 72.388-58.682 131.069-131.069 131.069-36.194 0-68.961-14.67-92.68-38.389l-129.38-129.4c-23.691-23.806-38.336-56.632-38.336-92.879 0-11.692 1.524-23.027 4.383-33.819l-0.207 0.919c0.409-1.858 0.644-3.993 0.644-6.182 0-16.569-13.431-30-30-30-13.385 0-24.723 8.766-28.585 20.87l-0.059 0.212c-3.867 14.389-6.089 30.91-6.089 47.949 0 52.826 21.352 100.665 55.896 135.358l129.373 129.393c34.867 36.558 83.954 59.29 138.35 59.29 105.52 0 191.060-85.54 191.060-191.060 0-54.386-22.724-103.464-59.194-138.259l-0.075-0.071-129.38-129.38c-34.397-34.615-82.033-56.041-134.673-56.041-0.157 0-0.314 0-0.471 0.001h0.024z" />
<glyph unicode="&#xe90f;" glyph-name="download_multimedia_cloud_download_download_cloud_multimedia_download_cloud_multimedia_download_cloud_multimedia_interface_cloud_multimedia" d="M715.020 294.667h-111.52c-16.569 0-30 13.431-30 30s13.431 30 30 30v0h111.52c76.74 0.946 138.585 63.375 138.585 140.25s-61.845 139.304-138.496 140.249l-0.089 0.001c-3.78 0-7.8-0.18-12.28-0.58-0.764-0.069-1.652-0.108-2.549-0.108-11.025 0-20.661 5.947-25.874 14.808l-0.076 0.141c-34.62 58.931-97.693 97.867-169.86 97.867-96.68 0-177.039-69.878-193.326-161.883l-0.174-1.183c-2.496-14.261-14.785-24.961-29.574-24.961-0.396 0-0.79 0.008-1.183 0.023l0.056-0.002h-2.12c-0.747 0.020-1.626 0.031-2.508 0.031-56.521 0-102.34-45.819-102.34-102.34s45.819-102.34 102.34-102.34c0.861 0 1.719 0.011 2.574 0.032l-0.127-0.002h149.42c16.569 0 30-13.431 30-30s-13.431-30-30-30v0h-149.42c-89.602 0.088-162.205 72.745-162.205 162.36 0 82.167 61.037 150.079 140.244 160.866l0.841 0.094c30.505 109.942 129.694 189.3 247.418 189.3 87.717 0 165.144-44.059 211.358-111.253l0.563-0.867c109.516-1.416 197.751-90.526 197.751-200.244 0-110.14-88.915-199.513-198.88-200.255h-0.071zM611.84 406.427c-0.007 0-0.015 0-0.023 0-8.275 0-15.765 3.364-21.176 8.799l-75.161 75.141-75.14-75.14c-5.307-4.837-12.396-7.799-20.177-7.799-16.569 0-30 13.431-30 30 0 7.801 2.977 14.906 7.858 20.242l-0.021-0.023 96.36 96.36c5.429 5.427 12.927 8.784 21.21 8.784s15.781-3.357 21.21-8.784l96.36-96.36c5.433-5.43 8.794-12.932 8.794-21.22 0-16.569-13.431-30-30-30-0.005 0-0.010 0-0.014 0h0.001zM515.48 173.287c-16.569 0-30 13.431-30 30v0 329.5c0 16.569 13.431 30 30 30s30-13.431 30-30v0-329.5c0-16.569-13.431-30-30-30v0z" />
<glyph unicode="&#xe910;" glyph-name="multimedia_upload_cloud_multimedia_cloud_upload_multimedia_cloud_cloud_multimedia_upload_multimedia_cloud_upload_upload" d="M709.8 294.667h-111.52c-16.569 0-30 13.431-30 30s13.431 30 30 30v0h111.52c76.74 0.946 138.585 63.375 138.585 140.25s-61.845 139.304-138.496 140.249l-0.089 0.001c-3.78 0-7.8-0.18-12.28-0.58-0.764-0.069-1.652-0.108-2.549-0.108-11.025 0-20.661 5.947-25.874 14.808l-0.076 0.141c-34.62 58.931-97.693 97.867-169.86 97.867-96.68 0-177.039-69.878-193.326-161.883l-0.174-1.183c-2.496-14.261-14.785-24.961-29.574-24.961-0.396 0-0.79 0.008-1.183 0.023l0.056-0.002h-2.12c-56.521 0-102.34-45.819-102.34-102.34s45.819-102.34 102.34-102.34h149.42c16.569 0 30-13.431 30-30s-13.431-30-30-30v0h-149.42c-89.602 0.088-162.205 72.745-162.205 162.36 0 82.167 61.037 150.079 140.244 160.866l0.841 0.094c30.505 109.942 129.694 189.3 247.418 189.3 87.717 0 165.144-44.059 211.358-111.253l0.563-0.867c108.612-2.564 195.678-91.218 195.678-200.208 0-109.432-87.775-198.364-196.763-200.23l-0.175-0.002zM510.26 88.667c-8.281 0.008-15.776 3.369-21.2 8.8v0l-96.36 96.34c-5.432 5.43-8.793 12.933-8.793 21.22 0 16.57 13.433 30.003 30.003 30.003 8.282 0 15.781-3.356 21.21-8.783l75.14-75.16 75.16 75.16c5.429 5.426 12.928 8.783 21.21 8.783 16.57 0 30.003-13.433 30.003-30.003 0-8.287-3.36-15.79-8.792-21.22l-96.36-96.34c-5.429-5.435-12.931-8.798-21.22-8.8v0zM510.26 88.667c-16.569 0-30 13.431-30 30v0 329.52c0 16.569 13.431 30 30 30s30-13.431 30-30v0-329.52c0-16.569-13.431-30-30-30v0z" />
<glyph unicode="&#xe911;" glyph-name="weather_multimedia_cloudy_cloud_weather_multimedia_cloudy_cloud_weather_cloud_interface_weather_cloudy_multimedia_multimedia_multimedia_weather_cloud_cloudy_cloudy_cloud" d="M707.58 201.387h-436.96c-89.592 0.087-162.186 72.736-162.186 162.34 0 82.157 61.029 150.059 140.225 160.846l0.841 0.094c30.505 109.942 129.694 189.3 247.418 189.3 87.717 0 165.144-44.059 211.358-111.253l0.563-0.867c109.507-1.427 197.73-90.533 197.73-200.244 0-110.154-88.937-199.536-198.922-200.256h-0.069zM270.62 466.067c-56.521 0-102.34-45.819-102.34-102.34s45.819-102.34 102.34-102.34h436.96c76.74 0.946 138.585 63.375 138.585 140.25s-61.845 139.304-138.496 140.249l-0.089 0.001c-3.8 0-7.8-0.18-12.26-0.58-0.773-0.071-1.671-0.111-2.579-0.111-11.018 0-20.648 5.939-25.864 14.791l-0.076 0.14c-34.619 58.934-97.694 97.871-169.863 97.871-96.675 0-177.030-69.87-193.324-161.867l-0.174-1.184c-2.501-14.255-14.788-24.949-29.572-24.949-0.263 0-0.525 0.003-0.787 0.010l0.039-0.001h-1.4z" />
<glyph unicode="&#xe912;" glyph-name="copy_multimedia_file_paper_interface_document_copy_multimedia_file_paper_document_paper_multimedia_file_document_copy_copy_document_paper_copy_multimedia_file_multimedia_copy_document_paper_file_multimedia_paper_document_file_interface" d="M617.020 38.667h-455.84c-16.569 0-30 13.431-30 30v0 582.14c0 16.569 13.431 30 30 30v0h455.84c16.569 0 30-13.431 30-30v0-582.14c0-16.569-13.431-30-30-30v0zM191.18 98.667h395.84v522.14h-395.84zM778.88 200.527h-161.86c-16.569 0-30 13.431-30 30s13.431 30 30 30v0h131.86v522.14h-395.84v-131.84c0-16.569-13.431-30-30-30s-30 13.431-30 30v0 161.84c0 16.569 13.431 30 30 30v0h455.84c16.569 0 30-13.431 30-30v0-582.14c0-16.569-13.431-30-30-30v0z" />
<glyph unicode="&#xe913;" glyph-name="stats_statistics_multimedia_stats_pie-chart_pie-chart_stats_multimedia_statistics_pie-chart_stats_multimedia_statistics_pie-chart_multimedia_statistics_statistics_interface_multimedia_stats_pie-chart_interface_pie-chart_stats_statistics_mult" d="M460 27.207c-194.201 0.148-351.592 157.539-351.74 351.726v0.014c0.020 193.94 157.74 351.72 351.74 351.72 16.569 0 30-13.431 30-30v0-291.72h291.74c16.569 0 30-13.431 30-30v0c0-193.94-157.74-351.74-351.74-351.74zM430 669.207c-146.82-15.060-261.72-139.46-261.74-290.2 0.114-161.090 130.655-291.652 291.726-291.8h0.014c150.74 0 275.14 114.9 290.2 261.74h-290.2c-16.569 0-30 13.431-30 30v0zM882.26 441.407h-329.8c-16.569 0-30 13.431-30 30v0 329.8c0 16.569 13.431 30 30 30v0c198.4 0 359.8-161.42 359.8-359.8 0-16.569-13.431-30-30-30v0zM582.46 501.407h268.32c-14.885 141.794-126.524 253.426-267.018 268.189l-1.302 0.111z" />
<glyph unicode="&#xe914;" glyph-name="multimedia_print_multimedia_printer_copy_printer_print_copy_copy_print_multimedia_printer_copy_print_multimedia_copy_interface_printer_multimedia_print_printer" d="M718 570.667h-424c-16.569 0-30 13.431-30 30v0 212c0 16.569 13.431 30 30 30v0h424c16.569 0 30-13.431 30-30v0-212c0-16.569-13.431-30-30-30v0zM324 630.667h364v152h-364zM718 38.667h-424c-16.569 0-30 13.431-30 30v0 325.82c0 16.569 13.431 30 30 30v0h424c16.569 0 30-13.431 30-30v0-325.82c0-16.569-13.431-30-30-30v0zM324 98.667h364v265.82h-364zM814.5 180.667h-96.5c-16.569 0-30 13.431-30 30s13.431 30 30 30v0h96.5c20.845 0.023 37.737 16.915 37.76 37.758v254.462c-0.011 20.854-16.908 37.757-37.758 37.78h-617.002c-20.852-0.023-37.749-16.926-37.76-37.779v-254.461c0.023-20.845 16.915-37.737 37.758-37.76h96.502c16.569 0 30-13.431 30-30s-13.431-30-30-30v0h-96.5c-53.964 0.068-97.692 43.796-97.76 97.753v254.467c0.057 53.973 43.789 97.712 97.753 97.78h617.007c53.971-0.068 97.703-43.807 97.76-97.775v-254.465c-0.068-53.964-43.796-97.692-97.753-97.76h-0.007zM262 466.667c-0.029 0-0.063 0-0.097 0-1.008 0-2.005 0.051-2.987 0.15l0.124-0.010c-0.96 0.1-2 0.26-2.9 0.44s-2 0.44-2.86 0.72-1.86 0.62-2.76 1-1.78 0.8-2.64 1.26c-0.998 0.515-1.829 1.012-2.626 1.556l0.086-0.056c-0.8 0.54-1.6 1.12-2.36 1.74s-1.5 1.3-2.2 2-1.36 1.44-2 2.2c-0.569 0.689-1.141 1.458-1.674 2.256l-0.066 0.104q-0.82 1.24-1.5 2.52c-0.46 0.86-0.88 1.76-1.26 2.66s-0.7 1.84-1 2.76-0.52 2-0.72 2.86-0.34 2-0.44 2.9c-0.092 0.899-0.144 1.944-0.144 3s0.052 2.101 0.154 3.13l-0.010-0.13c0.1 0.96 0.26 2 0.44 2.9s0.44 2 0.72 2.86 0.62 1.86 1 2.76 0.8 1.8 1.26 2.66 0.96 1.7 1.5 2.52c0.599 0.902 1.171 1.671 1.779 2.409l-0.039-0.049c0.62 0.76 1.3 1.5 2 2.2s1.44 1.36 2.2 2 1.56 1.2 2.36 1.74c0.711 0.488 1.542 0.985 2.402 1.435l0.138 0.065q1.3 0.68 2.64 1.26c0.9 0.38 1.84 0.7 2.76 1s2 0.52 2.86 0.72 2 0.34 2.9 0.44c0.884 0.086 1.911 0.135 2.95 0.135s2.066-0.049 3.079-0.145l-0.129 0.010c0.98-0.1 2-0.26 2.92-0.44s2-0.44 2.84-0.72 1.88-0.62 2.78-1 1.78-0.8 2.64-1.26c1.006-0.525 1.837-1.023 2.637-1.562l-0.097 0.062c0.8-0.54 1.6-1.12 2.36-1.74s1.5-1.3 2.2-2 1.34-1.44 2-2.2 1.2-1.56 1.74-2.36 1.040-1.66 1.5-2.52 0.88-1.76 1.26-2.66 0.7-1.84 1-2.76 0.52-2 0.72-2.86 0.34-2 0.44-2.9c0.092-0.899 0.144-1.944 0.144-3s-0.052-2.101-0.154-3.13l0.010 0.13c-0.1-0.96-0.26-2-0.44-2.9s-0.44-2-0.72-2.86-0.62-1.86-1-2.76-0.8-1.8-1.26-2.66-0.96-1.7-1.5-2.52-1.14-1.6-1.74-2.36-1.3-1.5-2-2.2-1.44-1.36-2.2-2-1.56-1.2-2.36-1.74c-0.703-0.477-1.534-0.975-2.392-1.428l-0.148-0.072q-1.3-0.68-2.64-1.26c-0.9-0.38-1.84-0.7-2.78-1s-1.88-0.52-2.84-0.72-2-0.34-2.92-0.44c-0.853-0.089-1.842-0.14-2.844-0.14-0.034 0-0.068 0-0.101 0h0.005zM350 466.667c-0.98 0-2 0-2.96 0.14s-2 0.26-2.9 0.44-2 0.44-2.86 0.72-1.86 0.62-2.76 1-1.8 0.8-2.66 1.26-1.7 0.96-2.52 1.5c-0.902 0.599-1.671 1.171-2.409 1.779l0.049-0.039c-0.76 0.62-1.5 1.3-2.2 2s-1.36 1.44-2 2.2-1.2 1.56-1.74 2.36c-0.476 0.698-0.98 1.529-1.443 2.384l-0.077 0.156c-0.44 0.86-0.86 1.74-1.24 2.64s-0.7 1.84-1 2.76-0.52 2-0.72 2.86-0.34 2-0.44 2.9c-0.092 0.899-0.144 1.944-0.144 3s0.052 2.101 0.154 3.13l-0.010-0.13c0.1 0.96 0.26 2 0.44 2.9s0.44 2 0.72 2.86 0.62 1.86 1 2.76 0.8 1.78 1.24 2.64c0.54 1.011 1.044 1.842 1.586 2.644l-0.066-0.104c0.54 0.8 1.12 1.6 1.74 2.36s1.3 1.5 2 2.2 1.44 1.36 2.2 2c0.689 0.569 1.458 1.141 2.256 1.674l0.104 0.066q1.24 0.82 2.52 1.5c0.86 0.46 1.76 0.88 2.66 1.26s1.84 0.7 2.76 1 2 0.52 2.86 0.72 2 0.34 2.9 0.44c0.899 0.088 1.944 0.139 3 0.139s2.101-0.050 3.131-0.149l-0.131 0.010c0.96-0.1 2-0.26 2.9-0.44s2-0.44 2.86-0.72 1.86-0.62 2.76-1 1.78-0.8 2.64-1.26 1.72-0.96 2.54-1.5 1.6-1.12 2.36-1.74 1.5-1.3 2.2-2 1.34-1.44 2-2.2 1.2-1.56 1.74-2.36c0.47-0.696 0.967-1.527 1.423-2.383l0.077-0.157q0.68-1.3 1.26-2.64c0.38-0.9 0.7-1.84 1-2.76s0.52-2 0.72-2.86 0.34-2 0.44-2.9c0.092-0.899 0.144-1.944 0.144-3s-0.052-2.101-0.154-3.13l0.010 0.13c-0.1-0.96-0.26-2-0.44-2.9s-0.44-2-0.72-2.86-0.62-1.86-1-2.76-0.8-1.78-1.26-2.64c-0.533-1.013-1.030-1.844-1.567-2.646l0.067 0.106c-0.54-0.8-1.14-1.6-1.74-2.36s-1.3-1.5-2-2.2-1.44-1.36-2.2-2-1.56-1.2-2.36-1.74-1.68-1.040-2.54-1.5-1.74-0.88-2.64-1.26-1.84-0.7-2.76-1-2-0.52-2.86-0.72-2-0.34-2.9-0.44-2.060-0.14-3.040-0.14zM624 250.667h-236c-16.569 0-30 13.431-30 30s13.431 30 30 30v0h236c16.569 0 30-13.431 30-30s-13.431-30-30-30v0zM624 144.667h-236c-16.569 0-30 13.431-30 30s13.431 30 30 30v0h236c16.569 0 30-13.431 30-30s-13.431-30-30-30v0z" />
<glyph unicode="&#xe915;" glyph-name="speak_heart_like_speak_multimedia_heart_bobble_heart_like_multimedia_bobble_speak_heart_like_multimedia_bobble_speak_bobble_multimedia_like_heart_interface_speak_bobble_like_multimedia" d="M749.24 46.167c-0.002 0-0.005 0-0.007 0-8.984 0-17.046 3.949-22.544 10.206l-0.029 0.034-96.96 110.78c-35.616-9.541-76.507-15.021-118.677-15.021-0.268 0-0.537 0-0.805 0.001h0.042c-107.32 0-208.48 34.86-284.82 98.14-78 64.64-120.9 151.060-120.9 243.36s42.94 178.72 120.9 243.36c76.34 63.28 177.5 98.14 284.82 98.14s208.5-34.86 284.84-98.14c78-64.64 120.9-151.060 120.9-243.36 0-98.54-49.64-190.98-136.76-255.84v-161.66c0-16.569-13.431-30-30-30v0zM639.8 231.187c0.002 0 0.005 0 0.007 0 8.984 0 17.046-3.949 22.544-10.206l0.029-0.034 56.86-64.96v97.3c0 0 0 0 0 0 0 10.24 5.13 19.281 12.96 24.694l0.1 0.065c78.6 53.76 123.7 132.36 123.7 215.62 0 155.22-155.1 281.5-345.74 281.5s-345.72-126.28-345.72-281.5 155.1-281.5 345.72-281.5c0.288-0.001 0.629-0.001 0.971-0.001 42.743 0 83.973 6.477 122.762 18.504l-2.933-0.783c2.614 0.817 5.62 1.292 8.736 1.3h0.004zM510.26 325.187c-2.597 0.008-5.111 0.344-7.51 0.966l0.21-0.046c-94.32 23.66-160.64 81.4-182 158.42-14.7 53.18-4.66 107.1 25.6 137.36 32.22 32.22 84.68 41.14 130.54 22.14 12.751-5.27 23.712-12.252 33.223-20.812l-0.103 0.092c9.418 8.462 20.384 15.443 32.383 20.441l0.757 0.279c45.84 19 98.3 10 130.54-22.14 30.26-30.26 40.3-84.18 25.58-137.36-21.3-77.020-87.62-134.76-182-158.42-2.163-0.572-4.649-0.906-7.212-0.92h-0.008zM427.22 593.847c-13.76 0-27.88-4-38.2-14.4-12.46-12.46-20-43.56-10.18-78.92 14.86-53.74 62.56-95.1 131.42-114.3 68.88 19.2 116.58 60.56 131.44 114.3 9.78 35.36 2.28 66.46-10.18 78.92-17.56 17.56-46 17.060-65.16 9.14-6.12-2.52-26.1-12.2-26.1-30.14 0-16.569-13.431-30-30-30s-30 13.431-30 30v0c0 18-20 27.62-26 30.14-7.971 3.327-17.232 5.26-26.944 5.26-0.034 0-0.067 0-0.101 0h0.005z" />
<glyph unicode="&#xe916;" glyph-name="shop_package_interface_multimedia_package_shop_multimedia_package_shop_multimedia_package_shop_shop_package_multimedia_multimedia_pack_package_interface_shop_multimedia" d="M745.66 38.667h-522c-16.569 0-30 13.431-30 30v0 568.86c0 16.569 13.431 30 30 30v0h522c16.569 0 30-13.431 30-30v0-568.86c0-16.569-13.431-30-30-30v0zM253.66 98.667h462v508.86h-462zM601.64 502.667c-16.569 0-30 13.431-30 30v0 163c-1.045 47.251-39.596 85.154-87 85.154s-85.955-37.904-86.998-85.057l-0.002-0.097v-163c0-16.569-13.431-30-30-30s-30 13.431-30 30v0 163c1.364 80.147 66.656 144.595 147 144.595s145.636-64.448 146.998-144.467l0.002-0.128v-163c0-16.569-13.431-30-30-30v0z" />
<glyph unicode="&#xe917;" glyph-name="multimedia_multimedia_bobble_speak_interface_bubble_chat_multimedia_chat_speak_bobble_bubble_chat_speak_bobble_bubble_multimedia_chat_speak_bobble_bubble_bubble_bobble_speak_chat_multimedia" d="M752.96 46.167c-0.002 0-0.005 0-0.007 0-8.984 0-17.046 3.949-22.544 10.206l-0.029 0.034-96.96 110.78c-35.61-9.541-76.493-15.021-118.657-15.021-0.268 0-0.536 0-0.805 0.001h0.041c-107.34 0-208.5 34.86-284.84 98.14-78 64.64-120.9 151.060-120.9 243.36s42.94 178.72 120.9 243.36c76.34 63.28 177.5 98.14 284.84 98.14s208.48-34.86 284.82-98.14c78-64.64 120.9-151.060 120.9-243.36 0-98.54-49.64-190.98-136.76-255.84v-161.66c0-16.569-13.431-30-30-30v0zM643.52 231.187c0.002 0 0.005 0 0.007 0 8.984 0 17.046-3.949 22.544-10.206l0.029-0.034 56.86-64.96v97.3c0 0.004 0 0.009 0 0.014 0 10.231 5.121 19.266 12.94 24.681l0.1 0.065c78.62 53.76 123.7 132.36 123.7 215.62 0 155.22-155.1 281.5-345.72 281.5s-345.72-126.28-345.72-281.5 155.1-281.5 345.74-281.5c0.289-0.001 0.632-0.001 0.974-0.001 42.735 0 83.957 6.478 122.738 18.504l-2.932-0.783c2.614 0.816 5.62 1.29 8.735 1.3h0.005zM639.54 579.527h-251.1c-16.569 0-30 13.431-30 30s13.431 30 30 30v0h251.1c16.569 0 30-13.431 30-30s-13.431-30-30-30v0zM639.54 466.327h-251.1c-16.569 0-30 13.431-30 30s13.431 30 30 30v0h251.1c16.569 0 30-13.431 30-30s-13.431-30-30-30v0zM639.54 353.127h-251.1c-16.569 0-30 13.431-30 30s13.431 30 30 30v0h251.1c16.569 0 30-13.431 30-30s-13.431-30-30-30v0z" />
<glyph unicode="&#xe918;" glyph-name="cross_delite_error_multimedia_cross_cross_multimedia_error_delite_multimedia_cross_error_interface_delite_delite_error_multimedia_cross_delite_error_multimedia" d="M514 15.747c-228 0-413.46 185.48-413.46 413.46s185.46 413.46 413.46 413.46 413.46-185.48 413.46-413.46-185.46-413.46-413.46-413.46zM514 782.667c-194.9 0-353.46-158.56-353.46-353.46s158.56-353.46 353.46-353.46 353.46 158.56 353.46 353.46-158.56 353.46-353.46 353.46zM685.84 222.667c-0.004 0-0.009 0-0.014 0-8.281 0-15.778 3.355-21.207 8.78l-343.68 343.7c-5.651 5.463-9.159 13.111-9.159 21.579 0 16.569 13.431 30 30 30 8.468 0 16.116-3.508 21.571-9.15l343.708-343.708c5.421-5.428 8.774-12.922 8.774-21.2 0-16.566-13.428-29.996-29.993-30v0zM342.14 222.667c-16.557 0.015-29.974 13.441-29.974 30 0 8.278 3.353 15.772 8.774 21.2v0l343.68 343.7c5.43 5.432 12.933 8.793 21.22 8.793 16.57 0 30.003-13.433 30.003-30.003 0-8.282-3.356-15.781-8.783-21.21l-343.7-343.7c-5.428-5.425-12.926-8.78-21.206-8.78-0.005 0-0.010 0-0.014 0h0.001z" />
<glyph unicode="&#xe919;" glyph-name="refresh_media_multimedia_arrows_refresh_refresh_arrows_multimedia_media_multimedia_refresh_interface_media_arrows_media_multimedia_arrows_refresh_media_multimedia_arrows" d="M205.18 255.827c-0.006 0-0.012 0-0.019 0-11.669 0-21.782 6.662-26.742 16.39l-0.079 0.17c-25.169 49.016-39.921 106.947-39.921 168.324 0 103.682 42.098 197.532 110.133 265.388l0.008 0.008c146.36 146.38 384.52 146.38 530.88 0 5.21-5.389 8.421-12.74 8.421-20.841 0-16.569-13.431-30-30-30-8.101 0-15.452 3.211-20.85 8.429l0.008-0.008c-123.020 122.98-323.020 122.98-446.040 0-57.163-57.015-92.529-135.86-92.529-222.965 0-51.573 12.398-100.25 34.376-143.214l-0.826 1.779c2.011-3.92 3.189-8.552 3.189-13.46 0-16.565-13.425-29.994-29.988-30h-0.001zM514 65.447c-0.202 0-0.441-0.001-0.681-0.001-103.412 0-197.027 41.948-264.756 109.757l-0.003 0.003c-5.432 5.43-8.793 12.933-8.793 21.22 0 16.57 13.433 30.003 30.003 30.003 8.282 0 15.781-3.356 21.21-8.783v0c123.020-122.98 323.020-122.98 446.040 0 57.163 57.015 92.529 135.86 92.529 222.965 0 51.573-12.398 100.25-34.376 143.214l0.826-1.779c-2.007 3.917-3.184 8.546-3.184 13.45 0 16.571 13.433 30.004 30.004 30.004 11.667 0 21.778-6.659 26.741-16.384l0.079-0.17c25.118-49.006 39.839-106.914 39.839-168.26 0-207.239-168.001-375.24-375.24-375.24-0.084 0-0.168 0-0.252 0h0.013zM630.42 642.167c-16.504 0.085-29.849 13.484-29.849 30 0 15.48 11.725 28.222 26.778 29.829l0.132 0.011 94.86 9.46-19.020 95.34c-0.325 1.658-0.511 3.565-0.511 5.515 0 16.569 13.431 30 30 30 14.371 0 26.382-10.105 29.315-23.597l0.036-0.198 25.48-127.86c0.369-1.764 0.58-3.792 0.58-5.868 0-15.519-11.784-28.286-26.891-29.841l-0.128-0.011-127.76-12.74c-1.020 0-2.020-0.040-3.020-0.040zM295.22 38.667c-14.486 0.011-26.568 10.287-29.367 23.947l-0.033 0.193-25.48 127.76c-0.368 1.764-0.579 3.79-0.579 5.866 0 15.526 11.794 28.297 26.912 29.843l0.127 0.011 127.76 12.74c0.9 0.096 1.943 0.15 3 0.15 16.569 0 30-13.432 30-30 0-15.512-11.773-28.275-26.872-29.839l-0.129-0.011-94.86-9.46 19-95.34c0.368-1.762 0.578-3.786 0.578-5.86 0-16.569-13.431-30-30-30-0.020 0-0.041 0-0.061 0h0.003z" />
<glyph unicode="&#xe91a;" glyph-name="media_menu_multimedia_bars_media_bars_media_interface_multimedia_menu_menu_media_bars_multimedia_menu_media_bars_multimedia_menu_multimedia_bars" d="M882.26 605.627h-744c-16.569 0-30 13.431-30 30s13.431 30 30 30v0h744c16.569 0 30-13.431 30-30s-13.431-30-30-30v0zM882.26 379.227h-744c-16.569 0-30 13.431-30 30s13.431 30 30 30v0h744c16.569 0 30-13.431 30-30s-13.431-30-30-30v0zM882.26 152.827h-744c-16.569 0-30 13.431-30 30s13.431 30 30 30v0h744c16.569 0 30-13.431 30-30s-13.431-30-30-30v0z" />
<glyph unicode="&#xe91b;" glyph-name="multimedia_spectacles_glasses_eyeglasses_multimedia_eyeglasses_glasses_spectacles_multimedia_eyeglasses_glasses_spectacles_multimedia_eyeglasses_glasses_spectacles_interface_multimedia_eyeglasses_spectacles_glasses_spectacles_interface_glass" d="M286.92 51.287c-0.006 0-0.013 0-0.020 0-98.671 0-178.66 79.989-178.66 178.66s79.989 178.66 178.66 178.66c98.671 0 178.66-79.989 178.66-178.66v0c-0.114-98.618-80.023-178.535-178.628-178.66h-0.012zM286.92 348.587c-0.006 0-0.013 0-0.020 0-65.534 0-118.66-53.126-118.66-118.66s53.126-118.66 118.66-118.66c65.534 0 118.66 53.126 118.66 118.66 0 0.007 0 0.014 0 0.021v-0.001c-0.034 65.525-53.121 118.64-118.632 118.72h-0.008zM733.62 51.287c-0.006 0-0.013 0-0.020 0-98.671 0-178.66 79.989-178.66 178.66s79.989 178.66 178.66 178.66c98.671 0 178.66-79.989 178.66-178.66v0c-0.102-98.623-80.018-178.546-178.629-178.66h-0.011zM733.62 348.587c-0.006 0-0.013 0-0.020 0-65.534 0-118.66-53.126-118.66-118.66s53.126-118.66 118.66-118.66c65.534 0 118.66 53.126 118.66 118.66 0 0.007 0 0.014 0 0.021v-0.001c-0.034 65.525-53.121 118.64-118.632 118.72h-0.008zM584.98 199.947h-149.42c-16.569 0-30 13.431-30 30s13.431 30 30 30v0h149.42c16.569 0 30-13.431 30-30s-13.431-30-30-30v0zM138.26 199.947c-16.569 0-30 13.431-30 30v0 430.54c0 53.295 43.205 96.5 96.5 96.5s96.5-43.205 96.5-96.5v0c0-16.569-13.431-30-30-30s-30 13.431-30 30v0c0 20.158-16.342 36.5-36.5 36.5s-36.5-16.342-36.5-36.5v0-430.54c0-16.569-13.431-30-30-30v0zM882.26 199.947c-16.569 0-30 13.431-30 30v0 430.54c0 20.158-16.342 36.5-36.5 36.5s-36.5-16.342-36.5-36.5v0c0-16.569-13.431-30-30-30s-30 13.431-30 30v0c0 53.295 43.205 96.5 96.5 96.5s96.5-43.205 96.5-96.5v0-430.54c0-16.569-13.431-30-30-30v0z" />
<glyph unicode="&#xe91c;" glyph-name="music_audio_note_interface_sound_music_multimedia_note_music_multimedia_sound_note_multimedia_audio_music_sound_note_note_audio_sound_music_multimedia_audio_multimedia_audio_sound" d="M274.9 38.667c-0.006 0-0.013 0-0.020 0-92.033 0-166.64 74.607-166.64 166.64s74.607 166.64 166.64 166.64c92.033 0 166.64-74.607 166.64-166.64 0-0.007 0-0.014 0-0.021v0.001c-0.114-91.976-74.644-166.506-166.609-166.62h-0.011zM274.9 311.927c-0.006 0-0.013 0-0.020 0-58.896 0-106.64-47.744-106.64-106.64s47.744-106.64 106.64-106.64c58.896 0 106.64 47.744 106.64 106.64v0c-0.068 58.861-47.76 106.56-106.612 106.64h-0.008zM749.76 148.667c-0.006 0-0.013 0-0.020 0-92.033 0-166.64 74.607-166.64 166.64s74.607 166.64 166.64 166.64c92.033 0 166.64-74.607 166.64-166.64v0c-0.102-91.985-74.637-166.526-166.609-166.64h-0.011zM749.76 421.927c-0.006 0-0.013 0-0.020 0-58.896 0-106.64-47.744-106.64-106.64s47.744-106.64 106.64-106.64c58.896 0 106.64 47.744 106.64 106.64 0 0.007 0 0.014 0 0.021v-0.001c-0.068 58.857-47.763 106.552-106.613 106.62h-0.007zM411.52 175.287c-16.569 0-30 13.431-30 30v0 494.78c0 14.221 9.896 26.132 23.177 29.22l0.203 0.040 474.86 107.58c1.989 0.47 4.273 0.74 6.62 0.74 16.568 0 30-13.431 30-30v0-492.34c0-16.569-13.431-30-30-30s-30 13.431-30 30v0 454.78l-414.86-94v-470.8c0-16.569-13.431-30-30-30v0zM411.5 533.427c-0.020 0-0.044 0-0.067 0-16.569 0-30 13.431-30 30 0 14.253 9.94 26.185 23.266 29.241l0.202 0.039 474.86 107.58c1.992 0.471 4.28 0.742 6.63 0.742 16.57 0 30.002-13.432 30.002-30.002 0-14.219-9.892-26.128-23.169-29.22l-0.203-0.040-474.86-107.58c-1.997-0.483-4.291-0.76-6.648-0.76-0.004 0-0.008 0-0.012 0h0.001z" />
<glyph unicode="&#xe91d;" glyph-name="document_document_multimedia_interface_file_document_multimedia_interface_download_file_multimedia_download_document_file_multimedia_download_document_file_multimedia_download_download_multimedia_file_file_document_download" d="M510.26 167.587c-8.842 0.025-16.78 3.87-22.255 9.972l-0.025 0.028-280.64 311.22c-4.741 5.283-7.639 12.303-7.639 20 0 16.54 13.386 29.954 29.915 30h112.384v273.86c0 16.569 13.431 30 30 30v0h276.6c16.569 0 30-13.431 30-30v0-273.78h112.32c16.534-0.046 29.919-13.46 29.919-30 0-7.697-2.899-14.717-7.664-20.028l0.025 0.028-280.66-311.38c-5.511-6.1-13.45-9.917-22.279-9.92h-0.001zM297.060 478.887l213.2-236.5 213.22 236.5h-74.88c-16.569 0-30 13.431-30 30v0 273.78h-216.6v-273.78c0-16.569-13.431-30-30-30v0zM781.68 38.667h-542.82c-72.089 0.080-130.509 58.492-130.6 130.571v76.349c0 16.569 13.431 30 30 30s30-13.431 30-30v0-76.34c0.057-38.964 31.634-70.535 70.596-70.58h542.824c38.962 0.045 70.534 31.618 70.58 70.576v76.344c0 16.569 13.431 30 30 30s30-13.431 30-30v0-76.34c-0.091-72.081-58.499-130.489-130.571-130.58h-0.009z" />
<glyph unicode="&#xe91e;" glyph-name="multimedia_like_hand_interface_finger_multimedia_like_hand_finger_finger_hand_like_multimedia_finger_hand_like_multimedia_hand_finger_multimedia_like" d="M484.56 83.887c-0.005 0-0.010 0-0.016 0-9.349 0-18.356 1.463-26.805 4.172l0.621-0.172c-36.44 11.38-59.74 43.28-59.38 81.24 0.32 34.7-6.3 65-19.66 90-16.38 30.66-43.66 54.26-81.1 70.16-10.874 4.689-18.348 15.317-18.348 27.69 0 16.606 13.462 30.068 30.068 30.068 4.233 0 8.262-0.875 11.915-2.453l-0.195 0.075c90.8-38.52 138.28-113.2 137.3-216 0.064-13.515 11.035-24.447 24.56-24.447 8.278 0 15.6 4.096 20.049 10.371l0.051 0.076c56.68 83.42 6.94 175.26 6.44 176.18-2.365 4.191-3.759 9.203-3.759 14.54 0 16.568 13.431 29.999 29.999 30h283.28c15.379 0.421 27.686 12.988 27.686 28.43s-12.307 28.009-27.647 28.429l-0.039 0.001h-40.9c-16.569 0-30 13.431-30 30s13.431 30 30 30v0c0.006 0 0.013 0 0.020 0 15.685 0 28.4 12.715 28.4 28.4 0 0.007 0 0.014 0 0.021v-0.001c-0.023 15.687-12.733 28.397-28.418 28.42h-40.882c-16.569 0-30 13.431-30 30s13.431 30 30 30v0c15.696 0 28.42 12.724 28.42 28.42s-12.724 28.42-28.42 28.42v0h-40.9c-16.569 0-30 13.431-30 30s13.431 30 30 30v0c15.696 0 28.42 12.724 28.42 28.42s-12.724 28.42-28.42 28.42v0h-173.3c-0.090 0-0.196 0-0.302 0-27.954 0-54.708-5.135-79.372-14.512l1.534 0.512-135-50.14c-2.462-0.728-5.291-1.147-8.218-1.147-16.569 0-30 13.431-30 30 0 11.965 7.004 22.293 17.136 27.11l0.182 0.078 135 50.14c29.396 11.309 63.404 17.86 98.943 17.86 0.034 0 0.068 0 0.102 0h173.295c48.807-0.092 88.338-39.68 88.338-88.5 0-13.615-3.075-26.512-8.567-38.035l0.23 0.535c29.415-14.806 49.242-44.758 49.242-79.341 0-13.622-3.076-26.525-8.572-38.054l0.23 0.535c29.402-14.81 49.218-44.756 49.218-79.329 0-13.619-3.075-26.52-8.568-38.046l0.23 0.535c29.404-14.776 49.229-44.703 49.229-79.26 0-48.829-39.581-88.414-88.408-88.42h-239.281c13.54-46.22 22.46-121.7-26.96-194.44-14.962-22.391-40.13-36.942-68.697-36.96h-0.003zM310 326.967h-171.74c-16.569 0-30 13.431-30 30v0 411.28c0 16.569 13.431 30 30 30v0h171.74c16.569 0 30-13.431 30-30v0-411.28c0-16.569-13.431-30-30-30v0zM168.32 386.967h111.68v351.28h-111.74z" />
<glyph unicode="&#xe91f;" glyph-name="favorite_favorite_multimedia_favourite_star_interface_favorites_multimedia_favourite_star_favorites_multimedia_favourite_favorite_star_favorites_multimedia_favourite_star_favorites_favorite_favorite_multimedia_favorite_star_favorites_favouri" d="M740.48 87.487c-0.031 0-0.068 0-0.105 0-5.083 0-9.868 1.273-14.054 3.518l0.159-0.078-212.48 111.74-212.52-111.74c-4.034-2.153-8.822-3.418-13.906-3.418-16.569 0-30 13.431-30 30 0 1.78 0.155 3.523 0.452 5.218l-0.026-0.18 40.6 236.64-172 167.6c-5.597 5.455-9.069 13.068-9.069 21.491 0 15.047 11.078 27.507 25.524 29.668l0.165 0.020 237.62 34.52 106.26 215.32c5.010 9.985 15.169 16.719 26.9 16.719s21.89-6.733 26.821-16.546l0.079-0.173 106.26-215.32 237.6-34.52c14.619-2.174 25.706-14.637 25.706-29.691 0-8.422-3.471-16.034-9.060-21.483l-0.006-0.006-172-167.6 40.6-236.64c0.273-1.521 0.43-3.272 0.43-5.060 0-16.565-13.426-29.994-29.989-30h-0.001zM212 527.327l139.7-136.18c5.591-5.454 9.059-13.063 9.059-21.482 0-1.765-0.152-3.495-0.445-5.177l0.026 0.179-32.98-192.28 172.64 90.72c4.057 2.184 8.879 3.467 14 3.467s9.943-1.283 14.16-3.546l-0.16 0.079 172.68-90.78-33.020 192.34c-0.274 1.523-0.431 3.276-0.431 5.066 0 8.415 3.464 16.020 9.045 21.468l0.006 0.006 139.72 136.12-193.060 28c-9.962 1.488-18.209 7.692-22.501 16.228l-0.079 0.172-86.36 174.94-86.34-174.94c-4.375-8.713-12.63-14.919-22.436-16.38l-0.164-0.020z" />
<glyph unicode="&#xe920;" glyph-name="navigation_navigation_right_multimedia_arrow_multimedia_arrow_back_arrow_interface_navigation_right_multimedia_back_navigation_back_right_interface_arrow_navigation_right_multimedia_arrow_back_navigation_right_back_back_arrow_multimedia_mult" d="M145.72 123.687h-7.46c-16.569 0-30 13.431-30 30v0 220.48c0 161.26 131.22 292.5 292.48 292.5h100.42v130.5c0.046 16.534 13.46 29.919 30 29.919 7.697 0 14.717-2.899 20.028-7.664l-0.028 0.025 351.2-316.54c6.096-5.513 9.91-13.451 9.91-22.28s-3.814-16.767-9.884-22.257l-0.026-0.023-351.1-316.56c-5.283-4.741-12.303-7.639-20-7.639-16.547 0-29.965 13.397-30 29.936v130.583h-133.96c-0.013 0-0.028 0-0.043 0-91.96 0-169.355-62.365-192.197-147.107l-0.32-1.393c-3.455-13.025-15.133-22.469-29.019-22.48h-0.001zM367.3 354.667h163.86c16.569 0 30-13.431 30-30v0-93.080l276.3 249.080-276.3 249.060v-93.060c0-16.569-13.431-30-30-30v0h-130.42c-128.343-0.148-232.344-104.156-232.48-232.487v-112.733c47.867 57.13 119.239 93.205 199.037 93.22h0.003z" />
<glyph unicode="&#xe921;" glyph-name="interface_building_house_multimedia_construction_interface_building_house_home_multimedia_house_home_building_construction_multimedia_multimedia_construction_building_home_house_building_construction_multimedia_house_construction_home_buildi" d="M790.98 38.667h-539.38c-16.569 0-30 13.431-30 30v0 476c0 16.569 13.431 30 30 30s30-13.431 30-30v0-446h479.38v446c0 16.569 13.431 30 30 30s30-13.431 30-30v0-476c0-16.569-13.431-30-30-30v0zM890.22 415.367c-0.004 0-0.009 0-0.014 0-8.281 0-15.778 3.355-21.207 8.78l-347.72 347.72-347.72-347.72c-5.389-5.21-12.74-8.421-20.841-8.421-16.569 0-30 13.431-30 30 0 8.101 3.211 15.452 8.429 20.85l368.852 368.932c5.429 5.427 12.927 8.784 21.21 8.784s15.781-3.357 21.21-8.784l369.020-368.94c5.421-5.428 8.774-12.922 8.774-21.2 0-16.566-13.428-29.996-29.993-30v0zM608.3 38.667h-174c-16.569 0-30 13.431-30 30v0 259.040c0 16.569 13.431 30 30 30v0h174c16.569 0 30-13.431 30-30v0-259.040c0-16.569-13.431-30-30-30v0zM464.3 98.667h114v199.040h-114z" />
<glyph unicode="&#xe922;" glyph-name="draw_design_draw_write_pencil_pen_pen_pencil_write_draw_design_pen_pencil_write_design_pen_pencil_write_draw_design_design_draw_write_pen_pencil_interface_multimedia" d="M807.34 562.787c-6.468 0.007-12.822 0.465-19.041 1.343l0.721-0.083c-35.78 4.8-71 22.96-99.14 51.1v0c-28.14 28.16-46.3 63.36-51.12 99.16-5.14 38.24 5.86 74.14 30.22 98.5s60.26 35.38 98.5 30.22c35.8-4.82 71.020-22.96 99.16-51.12s46.3-63.36 51.12-99.14c5.14-38.26-5.88-74.16-30.22-98.52-20.42-20.4-48.96-31.46-80.2-31.46zM732.3 657.587c18.62-18.64 42.22-31.060 64.74-34 19.82-2.68 36.9 2 48 13.18s15.86 28.24 13.18 48c-3.020 22.52-15.44 46.12-34 64.74-36.22 36.22-87.9 45.78-112.82 20.88s-15.34-76.58 20.9-112.8zM378.72 134.187c-6.455 0.001-12.803 0.452-19.017 1.322l0.717-0.082c-35.8 4.82-71.020 22.96-99.16 51.12s-46.3 63.36-51.12 99.14c-5.14 38.26 5.88 74.16 30.22 98.52 5.431 5.431 12.933 8.79 21.22 8.79 16.574 0 30.010-13.436 30.010-30.010 0-8.287-3.359-15.789-8.79-21.22v0c-11.18-11.16-15.86-28.24-13.2-48 3.040-22.52 15.46-46.12 34-64.74 36.4-36.36 87.98-45.86 112.9-20.96 5.463 5.651 13.111 9.159 21.579 9.159 16.569 0 30-13.431 30-30 0-8.468-3.508-16.116-9.15-21.571l-0.008-0.008c-20.42-20.42-48.92-31.46-80.2-31.46zM143.38 38.667c-16.565 0.004-29.993 13.434-29.993 30 0 2.304 0.26 4.547 0.751 6.701l-0.039-0.201c0.52 2.34 12.92 58 30.14 119.4 32.32 115.2 51.82 145.34 65.2 158.72l459.54 459.52c5.463 5.651 13.111 9.159 21.579 9.159 16.569 0 30-13.431 30-30 0-8.468-3.508-16.116-9.15-21.571l-459.528-459.548c-1.82-1.8-18.54-20.86-49.88-132.5-7.020-25.020-13.3-49.38-18.2-69.28 20 4.94 44.42 11.22 69.5 18.28 111.44 31.28 130.48 48 132.28 49.8l459.52 459.52c5.43 5.432 12.933 8.793 21.22 8.793 16.57 0 30.003-13.433 30.003-30.003 0-8.282-3.356-15.781-8.783-21.21l-459.54-459.58c-13.38-13.38-43.5-32.88-158.72-65.22-61.3-17.2-117.060-29.6-119.4-30.12-1.882-0.42-4.044-0.661-6.263-0.661-0.083 0-0.167 0-0.25 0.001h0.013zM783.26 668.527c-8.288 0.002-15.791 3.365-21.22 8.8v0l-10 10c-5.21 5.389-8.421 12.74-8.421 20.841 0 16.569 13.431 30 30 30 8.101 0 15.452-3.211 20.85-8.429l9.992-9.992c5.433-5.43 8.794-12.932 8.794-21.22 0-16.566-13.428-29.996-29.993-30v0z" />
<glyph unicode="&#xe923;" glyph-name="social_speak_chat_media_multimedia_multimedia_social_speak_chat_media_social_chat_media_interface_speak_speak_chat_social_multimedia_media_media_chat_speak_social_multimedia_multimedia" d="M746.86 49.787c-0.002 0-0.005 0-0.007 0-8.984 0-17.046 3.949-22.544 10.206l-0.029 0.034-95.86 109.54c-35.31-9.464-75.85-14.9-117.66-14.9-0.176 0-0.352 0-0.527 0h0.027c-106.26 0-206.56 34.6-282.26 97.3-77.26 64-119.82 149.7-119.82 241.18s42.64 177.12 119.82 241.16c75.7 62.7 176 97.24 282.26 97.24s206.56-34.54 282.2-97.24c77.26-64 119.8-149.7 119.8-241.16 0-97.64-49.14-189.2-135.4-253.44v-160c0-16.569-13.431-30-30-30v0zM638.52 233.547c0.002 0 0.005 0 0.007 0 8.984 0 17.046-3.949 22.544-10.206l0.029-0.034 55.76-63.7v95.52c0.012 10.261 5.173 19.313 13.038 24.714l0.102 0.066c77.76 53.18 122.34 130.9 122.34 213.24 0 153.5-153.42 278.4-342 278.4s-342-124.9-342-278.4 153.34-278.48 341.92-278.48c0.274-0.001 0.599-0.001 0.923-0.001 42.302 0 83.108 6.404 121.502 18.296l-2.905-0.775c2.61 0.846 5.614 1.342 8.731 1.36h0.009zM402.98 410.667c-0.98 0-2 0-2.94 0.14s-2 0.26-2.92 0.44-2 0.44-2.84 0.72-1.88 0.62-2.78 1-1.78 0.8-2.64 1.26c-1.013 0.533-1.844 1.030-2.646 1.567l0.106-0.067c-0.8 0.54-1.6 1.12-2.36 1.74s-1.5 1.3-2.2 2-1.36 1.44-2 2.2-1.2 1.56-1.74 2.36c-0.47 0.696-0.967 1.527-1.423 2.383l-0.077 0.157q-0.7 1.3-1.26 2.64c-0.308 0.707-0.641 1.623-0.927 2.559l-0.053 0.201c-0.257 0.766-0.506 1.727-0.696 2.709l-0.024 0.151c-0.184 0.807-0.339 1.797-0.433 2.804l-0.007 0.096c-0.098 0.884-0.156 1.913-0.16 2.954v0.006c0.003 1.040 0.061 2.062 0.171 3.068l-0.011-0.128c0.222 2.151 0.631 4.113 1.218 5.996l-0.058-0.216c0.339 1.137 0.672 2.053 1.050 2.946l-0.070-0.186q0.58 1.34 1.26 2.64c0.533 1.013 1.030 1.844 1.567 2.646l-0.067-0.106c0.54 0.8 1.12 1.6 1.74 2.36s1.3 1.5 2 2.2 1.44 1.36 2.2 2 1.56 1.2 2.36 1.74c0.711 0.488 1.542 0.985 2.402 1.435l0.138 0.065q1.3 0.68 2.64 1.26c0.722 0.32 1.644 0.66 2.588 0.949l0.192 0.051c0.92 0.28 1.88 0.52 2.84 0.72s2 0.34 2.92 0.44c0.885 0.096 1.911 0.15 2.95 0.15s2.065-0.054 3.076-0.161l-0.126 0.011c0.96-0.1 2-0.26 2.9-0.44s2-0.44 2.86-0.72c1.138-0.347 2.053-0.687 2.945-1.071l-0.185 0.071c0.9-0.38 1.8-0.8 2.66-1.26 0.997-0.524 1.821-1.022 2.614-1.56l-0.094 0.060c0.902-0.599 1.671-1.171 2.409-1.779l-0.049 0.039c0.76-0.62 1.5-1.3 2.2-2s1.36-1.44 2-2.2 1.2-1.56 1.74-2.36c0.47-0.696 0.967-1.527 1.423-2.383l0.077-0.157q0.68-1.3 1.26-2.64c0.38-0.9 0.7-1.84 1-2.76s0.52-2 0.72-2.86c0.369-1.733 0.58-3.724 0.58-5.764 0-0.034 0-0.068 0-0.102v0.005c0-0.029 0-0.063 0-0.097 0-1.008-0.051-2.005-0.15-2.987l0.010 0.124c-0.114-1.129-0.269-2.118-0.473-3.089l0.033 0.189c-0.2-0.96-0.44-2-0.72-2.86s-0.62-1.86-1-2.76-0.8-1.78-1.26-2.64c-0.533-1.013-1.030-1.844-1.567-2.646l0.067 0.106c-0.54-0.8-1.12-1.6-1.74-2.36s-1.3-1.5-2-2.2-1.44-1.36-2.2-2c-0.689-0.569-1.458-1.141-2.256-1.674l-0.104-0.066q-1.24-0.8-2.52-1.5c-0.86-0.46-1.76-0.88-2.66-1.26s-1.84-0.7-2.76-1-1.9-0.52-2.86-0.72-2-0.34-2.9-0.44-1.94-0.14-2.96-0.14zM625 410.667c-0.029 0-0.062 0-0.096 0-1.001 0-1.991 0.051-2.966 0.15l0.123-0.010c-0.98 0.1-2 0.26-2.92 0.44s-2 0.44-2.84 0.72-1.86 0.62-2.76 1-1.8 0.8-2.66 1.26c-1.856 1.003-3.453 2.077-4.937 3.285l0.057-0.045c-0.76 0.62-1.5 1.3-2.18 2-0.689 0.685-1.343 1.402-1.96 2.15l-0.040 0.050c-0.62 0.76-1.22 1.56-1.76 2.36-0.47 0.696-0.967 1.527-1.423 2.383l-0.077 0.157q-0.68 1.3-1.26 2.64c-0.36 0.9-0.7 1.84-0.98 2.76-0.257 0.766-0.506 1.727-0.696 2.709l-0.024 0.151c-0.368 1.755-0.585 3.778-0.6 5.849v0.011c0.004 1.047 0.062 2.076 0.171 3.090l-0.011-0.13c0.114 1.129 0.269 2.118 0.473 3.089l-0.033-0.189c0.214 1.133 0.463 2.094 0.768 3.030l-0.048-0.17c0.28 0.92 0.62 1.86 0.98 2.76s0.8 1.78 1.26 2.64c0.533 1.013 1.030 1.844 1.567 2.646l-0.067-0.106c0.54 0.8 1.14 1.6 1.76 2.36 0.657 0.798 1.311 1.515 1.999 2.199l0.001 0.001c0.68 0.68 1.42 1.36 2.18 2 1.432 1.163 3.036 2.238 4.735 3.158l0.165 0.082c0.86 0.46 1.74 0.88 2.66 1.26s1.82 0.7 2.76 1 1.88 0.52 2.84 0.72 2 0.34 2.92 0.44c0.899 0.089 1.944 0.14 3 0.14s2.101-0.051 3.131-0.15l-0.131 0.010c0.96-0.1 2-0.26 2.9-0.44s2-0.44 2.86-0.72 1.86-0.62 2.76-1 1.8-0.8 2.66-1.26 1.7-0.96 2.52-1.5c0.897-0.588 1.666-1.161 2.401-1.773l-0.041 0.033c0.76-0.62 1.5-1.3 2.2-2s1.36-1.44 2-2.2 1.2-1.56 1.74-2.36c0.476-0.698 0.98-1.529 1.443-2.384l0.077-0.156c0.44-0.86 0.88-1.74 1.24-2.64 0.313-0.707 0.653-1.622 0.946-2.558l0.054-0.202c0.28-0.94 0.52-2 0.72-2.86s0.34-2 0.44-2.9c0.089-0.859 0.14-1.855 0.14-2.863 0-0.034 0-0.068 0-0.102v0.005c0-0.032 0-0.070 0-0.109 0-0.997-0.051-1.982-0.15-2.953l0.010 0.122c-0.1-0.98-0.26-2-0.44-2.92s-0.44-2-0.72-2.86c-0.347-1.138-0.687-2.053-1.071-2.945l0.071 0.185c-0.36-0.9-0.8-1.78-1.24-2.64-0.54-1.011-1.044-1.842-1.586-2.644l0.066 0.104c-0.54-0.8-1.12-1.6-1.74-2.36s-1.3-1.5-2-2.2-1.44-1.36-2.2-2c-0.694-0.579-1.463-1.152-2.264-1.68l-0.096-0.060q-1.22-0.8-2.52-1.5c-0.86-0.46-1.76-0.88-2.66-1.26s-1.84-0.7-2.76-1-1.9-0.52-2.86-0.72-2-0.34-2.9-0.44c-0.86-0.090-1.859-0.141-2.87-0.141-0.074 0-0.148 0-0.222 0.001h0.011zM514 410.667c-8.281 0.022-15.776 3.371-21.222 8.782l0.002-0.002c-0.689 0.685-1.343 1.402-1.96 2.15l-0.040 0.050c-0.62 0.76-1.2 1.56-1.76 2.36s-1.040 1.66-1.5 2.54c-0.391 0.703-0.807 1.572-1.176 2.465l-0.064 0.175c-0.313 0.707-0.653 1.622-0.946 2.558l-0.054 0.202c-0.28 0.94-0.52 2-0.72 2.86-0.171 0.782-0.326 1.771-0.43 2.776l-0.010 0.124c-0.092 0.899-0.144 1.944-0.144 3s0.052 2.101 0.154 3.13l-0.010-0.13c0.114 1.129 0.269 2.118 0.473 3.089l-0.033-0.189c0.2 0.96 0.44 2 0.72 2.86 0.347 1.138 0.687 2.053 1.071 2.945l-0.071-0.185c0.433 1.068 0.849 1.937 1.309 2.777l-0.069-0.137c0.46 0.88 0.98 1.72 1.5 2.54s1.14 1.6 1.76 2.36c0.657 0.798 1.311 1.515 1.999 2.199l0.001 0.001c5.464 5.424 12.991 8.775 21.301 8.775 1.007 0 2.002-0.049 2.983-0.145l-0.124 0.010c0.98-0.1 2-0.26 2.92-0.44s1.9-0.44 2.84-0.72 1.86-0.62 2.76-1 1.8-0.8 2.66-1.26c1.864-1.002 3.468-2.077 4.958-3.285l-0.058 0.045c0.76-0.62 1.5-1.3 2.18-2 0.689-0.685 1.343-1.402 1.96-2.15l0.040-0.050c0.62-0.76 1.22-1.56 1.76-2.36 0.47-0.696 0.967-1.527 1.423-2.383l0.077-0.157q0.68-1.3 1.26-2.64c0.36-0.9 0.7-1.84 0.98-2.76 0.257-0.766 0.506-1.727 0.696-2.709l0.024-0.151c0.171-0.782 0.326-1.771 0.43-2.776l0.010-0.124c0.105-0.9 0.164-1.943 0.164-3s-0.060-2.1-0.176-3.126l0.012 0.126c-0.114-1.129-0.269-2.118-0.473-3.089l0.033 0.189c-0.214-1.133-0.463-2.094-0.768-3.030l0.048 0.17c-0.28-0.92-0.62-1.86-0.98-2.76s-0.8-1.78-1.26-2.64c-0.533-1.013-1.030-1.844-1.567-2.646l0.067 0.106c-0.54-0.8-1.14-1.6-1.76-2.36-0.657-0.798-1.311-1.515-1.999-2.199l-0.001-0.001c-0.68-0.68-1.42-1.34-2.18-2-1.432-1.163-3.036-2.238-4.735-3.158l-0.165-0.082c-0.86-0.46-1.76-0.88-2.66-1.26s-1.82-0.7-2.76-1-2-0.52-2.84-0.72-2-0.34-2.92-0.44c-0.734-0.066-1.589-0.104-2.452-0.104-0.172 0-0.343 0.001-0.514 0.004h0.026z" />
<glyph unicode="&#xe924;" glyph-name="media_social_speak_chat_media_multimedia_social_speak_chat_media_multimedia_social_speak_chat_social_media_chat_speak_social_multimedia_multimedia_multimedia_speak_interface_media_chat" d="M728 38.667c-0.002 0-0.005 0-0.007 0-8.984 0-17.046 3.949-22.544 10.206l-0.029 0.034-158.42 181.080h-309.72c-71.215 0.091-128.92 57.803-129 129.012v354.648c0.080 71.217 57.785 128.929 128.991 129.020h546.009c71.215-0.091 128.92-57.803 129-129.012v-354.648c-0.080-71.217-57.785-128.929-128.991-129.020h-25.289v-161.32c0-16.569-13.431-30-30-30v0zM237.28 782.667c-38.092-0.057-68.955-30.927-69-69.016v-354.644c0.045-38.093 30.908-68.963 68.995-69.020h323.325c0.002 0 0.005 0 0.007 0 8.984 0 17.046-3.949 22.544-10.206l0.029-0.034 114.82-131.26v111.5c0 16.569 13.431 30 30 30v0h55.18c38.092 0.057 68.955 30.927 69 69.016v354.644c-0.045 38.065-30.863 68.918-68.91 69.020h-0.010zM399.26 410.667c-8.295 0.015-15.805 3.366-21.262 8.782l0.002-0.002c-0.68 0.7-1.34 1.44-2 2.2-0.569 0.689-1.141 1.458-1.674 2.256l-0.066 0.104q-0.82 1.22-1.5 2.52c-0.46 0.86-0.88 1.76-1.26 2.66s-0.7 1.84-1 2.76-0.52 2-0.72 2.86-0.34 2-0.44 2.9c-0.089 0.859-0.14 1.855-0.14 2.863 0 0.034 0 0.068 0 0.102v-0.005c0 0.032 0 0.070 0 0.109 0 0.997 0.051 1.982 0.15 2.953l-0.010-0.122c0.1 0.98 0.26 2 0.44 2.92s0.44 2 0.72 2.84 0.62 1.88 1 2.78 0.8 1.78 1.26 2.64c0.533 1.013 1.030 1.844 1.567 2.646l-0.067-0.106c0.54 0.8 1.12 1.6 1.74 2.36s1.3 1.5 2 2.2c5.473 5.423 13.007 8.773 21.323 8.773 0.999 0 1.986-0.048 2.96-0.143l-0.124 0.010c0.98-0.1 2-0.26 2.92-0.44s2-0.44 2.84-0.72 1.88-0.62 2.78-1 1.78-0.8 2.64-1.26 1.72-0.96 2.54-1.5 1.6-1.12 2.36-1.74 1.5-1.3 2.18-2 1.36-1.44 2-2.2 1.2-1.56 1.74-2.36c0.47-0.696 0.967-1.527 1.423-2.383l0.077-0.157q0.7-1.3 1.26-2.64c0.38-0.9 0.7-1.84 1-2.78s0.52-1.88 0.72-2.84 0.34-2 0.44-2.92 0.14-2 0.14-2.94 0-2-0.14-2.96-0.26-2-0.44-2.9-0.44-2-0.72-2.86-0.62-1.86-1-2.76-0.8-1.8-1.26-2.66-0.96-1.7-1.5-2.52-1.14-1.6-1.74-2.36-1.3-1.5-2-2.2-1.42-1.36-2.18-2-1.56-1.2-2.36-1.74-1.68-1.040-2.54-1.5-1.74-0.88-2.64-1.26-1.84-0.7-2.78-1-1.88-0.52-2.84-0.72-2-0.34-2.92-0.44-1.92-0.1-2.9-0.1zM621.28 410.667c-0.98 0-2 0-2.94 0.14s-2 0.26-2.92 0.44-2 0.44-2.86 0.72-1.86 0.62-2.76 1-1.78 0.8-2.64 1.26c-1.013 0.533-1.844 1.030-2.646 1.567l0.106-0.067c-0.8 0.54-1.6 1.12-2.36 1.74s-1.5 1.3-2.2 2-1.36 1.44-2 2.2-1.2 1.56-1.74 2.36c-0.47 0.696-0.967 1.527-1.423 2.383l-0.077 0.157q-0.7 1.3-1.26 2.64c-0.38 0.9-0.7 1.84-1 2.76s-0.52 2-0.72 2.86-0.34 2-0.44 2.9-0.14 2-0.14 2.96 0 2 0.14 2.96 0.26 2 0.44 2.9 0.44 2 0.72 2.86 0.62 1.86 1 2.76 0.8 1.8 1.26 2.66 0.96 1.7 1.5 2.52c0.599 0.902 1.171 1.671 1.779 2.409l-0.039-0.049c0.62 0.76 1.3 1.5 2 2.2s1.44 1.36 2.2 2 1.56 1.2 2.36 1.74c0.696 0.47 1.527 0.967 2.383 1.423l0.157 0.077q1.3 0.68 2.64 1.26c0.9 0.38 1.84 0.7 2.76 1s2 0.52 2.86 0.72 2 0.34 2.92 0.44c0.884 0.086 1.911 0.135 2.95 0.135s2.066-0.049 3.079-0.145l-0.129 0.010c0.96-0.1 2-0.26 2.9-0.44s2-0.44 2.86-0.72 1.86-0.62 2.76-1 1.78-0.8 2.64-1.26c1.013-0.533 1.844-1.030 2.646-1.567l-0.106 0.067c0.8-0.54 1.6-1.12 2.36-1.74s1.5-1.3 2.2-2 1.36-1.44 2-2.2c0.569-0.689 1.141-1.458 1.674-2.256l0.066-0.104q0.8-1.24 1.5-2.52c0.46-0.86 0.88-1.76 1.26-2.66s0.7-1.84 1-2.76 0.52-2 0.72-2.86 0.34-2 0.44-2.9c0.092-0.899 0.144-1.944 0.144-3s-0.052-2.101-0.154-3.13l0.010 0.13c-0.1-0.96-0.26-2-0.44-2.9s-0.44-2-0.72-2.86-0.62-1.86-1-2.76-0.8-1.78-1.26-2.64c-0.533-1.013-1.030-1.844-1.567-2.646l0.067 0.106c-0.54-0.8-1.12-1.6-1.74-2.36s-1.3-1.5-2-2.2-1.44-1.36-2.2-2-1.56-1.2-2.36-1.74c-0.696-0.47-1.527-0.967-2.383-1.423l-0.157-0.077q-1.3-0.68-2.64-1.26c-0.9-0.38-1.84-0.7-2.76-1s-1.9-0.52-2.86-0.72-2-0.34-2.9-0.44-1.98-0.060-2.96-0.060zM510.26 410.667c-0.025 0-0.054 0-0.083 0-1.006 0-2 0.051-2.98 0.15l0.123-0.010c-0.98 0.1-2 0.26-2.92 0.44s-1.9 0.44-2.84 0.72-1.86 0.62-2.76 1-1.8 0.8-2.66 1.26c-1.864 1.002-3.468 2.077-4.958 3.285l0.058-0.045c-0.76 0.62-1.5 1.3-2.18 2-0.689 0.685-1.343 1.402-1.96 2.15l-0.040 0.050c-0.62 0.76-1.22 1.56-1.76 2.36-0.47 0.696-0.967 1.527-1.423 2.383l-0.077 0.157q-0.68 1.3-1.26 2.64c-0.36 0.9-0.7 1.84-0.98 2.78-0.246 0.742-0.495 1.695-0.691 2.668l-0.029 0.172c-0.369 1.733-0.58 3.724-0.58 5.764 0 0.034 0 0.068 0 0.102v-0.005c0 0.029 0 0.063 0 0.097 0 1.008 0.051 2.005 0.15 2.987l-0.010-0.124c0.114 1.129 0.269 2.118 0.473 3.089l-0.033-0.189c0.23 1.162 0.479 2.122 0.775 3.062l-0.055-0.202c0.28 0.92 0.62 1.86 0.98 2.76s0.8 1.78 1.26 2.64c0.533 1.013 1.030 1.844 1.567 2.646l-0.067-0.106c0.54 0.8 1.14 1.6 1.76 2.36 0.657 0.798 1.311 1.515 1.999 2.199l0.001 0.001c0.68 0.68 1.42 1.36 2.18 2 1.432 1.163 3.036 2.238 4.735 3.158l0.165 0.082c0.86 0.46 1.76 0.88 2.66 1.26s1.82 0.7 2.76 1 1.9 0.52 2.84 0.72 2 0.34 2.92 0.44c0.899 0.089 1.944 0.14 3 0.14s2.101-0.051 3.131-0.15l-0.131 0.010c0.98-0.1 2-0.26 2.9-0.44s2-0.44 2.86-0.72 1.86-0.62 2.76-1 1.8-0.8 2.66-1.26 1.7-0.96 2.52-1.5c0.911-0.6 1.687-1.173 2.432-1.781l-0.052 0.041c0.76-0.62 1.5-1.3 2.18-2 0.689-0.685 1.343-1.402 1.96-2.15l0.040-0.050c0.62-0.76 1.2-1.56 1.76-2.36 0.47-0.696 0.967-1.527 1.423-2.383l0.077-0.157c0.391-0.703 0.807-1.572 1.176-2.465l0.064-0.175c0.313-0.707 0.653-1.622 0.946-2.558l0.054-0.202c0.28-0.94 0.52-2 0.72-2.86 0.171-0.782 0.326-1.771 0.43-2.776l0.010-0.124c0.089-0.859 0.14-1.855 0.14-2.863 0-0.034 0-0.068 0-0.102v0.005c0-0.029 0-0.062 0-0.096 0-2.040-0.211-4.031-0.613-5.952l0.033 0.188c-0.2-0.96-0.44-2-0.72-2.84-0.34-1.136-0.68-2.058-1.067-2.956l0.067 0.176c-0.433-1.068-0.849-1.937-1.309-2.777l0.069 0.137c-0.46-0.86-0.96-1.72-1.5-2.54s-1.14-1.6-1.76-2.36c-0.657-0.798-1.311-1.515-1.999-2.199l-0.001-0.001c-0.68-0.68-1.42-1.36-2.18-2-0.693-0.567-1.469-1.14-2.273-1.673l-0.107-0.067q-1.22-0.8-2.52-1.5c-0.86-0.46-1.76-0.88-2.66-1.26s-1.82-0.7-2.76-1-1.9-0.52-2.86-0.72-2-0.34-2.9-0.44c-0.86-0.090-1.858-0.141-2.868-0.141-0.067 0-0.135 0-0.202 0.001h0.010z" />
<glyph unicode="&#xe925;" glyph-name="users_team_group_users_multimedia_team_group_group_team_multimedia_multimedia_users_group_team_multimedia_users_users_group_interface_team_multimedia" d="M314.28 276.027c-90.801 0.051-164.39 73.672-164.39 164.48 0 90.84 73.64 164.48 164.48 164.48s164.48-73.64 164.48-164.48c0-45.447-18.432-86.589-48.229-116.359l-0.001-0.001c-29.687-29.729-70.721-48.12-116.051-48.12-0.102 0-0.203 0-0.305 0h0.016zM314.28 545.007c-57.671-0.072-104.394-46.84-104.394-104.52 0-57.725 46.795-104.52 104.52-104.52s104.52 46.795 104.52 104.52c0 28.879-11.712 55.022-30.646 73.939l-0.001 0.001c-18.872 18.893-44.954 30.58-73.766 30.58-0.082 0-0.164 0-0.247 0h0.013zM726 513.227c-0.019 0-0.041 0-0.063 0-90.884 0-164.56 73.676-164.56 164.56s73.676 164.56 164.56 164.56c45.453 0 86.601-18.428 116.383-48.22v0c29.767-29.777 48.177-70.909 48.177-116.34 0-90.862-73.64-164.524-164.494-164.56h-0.003zM726 782.327c-57.717-0.040-104.49-46.838-104.49-104.56 0-57.747 46.813-104.56 104.56-104.56s104.56 46.813 104.56 104.56c0 28.876-11.705 55.018-30.63 73.94v0c-18.818 18.915-44.866 30.621-73.649 30.621-0.124 0-0.247 0-0.37-0.001h0.019zM726 38.667c-90.884 0-164.56 73.676-164.56 164.56s73.676 164.56 164.56 164.56c90.884 0 164.56-73.676 164.56-164.56 0-0.007 0-0.014 0-0.021v0.001c-0.114-90.834-73.724-164.438-164.55-164.54h-0.010zM726 307.767c-57.747 0-104.56-46.813-104.56-104.56s46.813-104.56 104.56-104.56c57.747 0 104.56 46.813 104.56 104.56v0c-0.057 57.724-46.836 104.503-104.555 104.56h-0.005zM430.9 477.687c-0.016 0-0.035 0-0.053 0-16.569 0-30 13.431-30 30 0 11.059 5.984 20.721 14.891 25.923l0.142 0.077 178.5 102.88c4.303 2.525 9.477 4.017 15 4.017 16.578 0 30.017-13.439 30.017-30.017 0-11.055-5.977-20.715-14.875-25.923l-0.142-0.077-178.5-102.88c-4.295-2.515-9.457-4-14.967-4-0.005 0-0.009 0-0.014 0h0.001zM609.36 240.407c-5.507 0.001-10.667 1.486-15.102 4.077l0.142-0.077-178.52 102.88c-9.040 5.285-15.017 14.945-15.017 26 0 16.578 13.439 30.017 30.017 30.017 5.523 0 10.697-1.491 15.142-4.093l-0.142 0.077 178.5-102.88c9.049-5.279 15.033-14.941 15.033-26 0-16.569-13.431-30-30-30-0.012 0-0.023 0-0.035 0h0.002z" />
<glyph unicode="&#xe926;" glyph-name="shop_basket_multimedia_shop_buy_market_shopping_store_store_shopping_market_buy_multimedia_basket_store_shopping_market_buy_shop_multimedia_basket_store_shopping_market_buy_shop_multimedia_basket_basket_market_shop_buy_shopping_store_multime" d="M795.56 306.667h-410.26c-0.014 0-0.032 0-0.049 0-14.207 0-26.108 9.876-29.211 23.137l-0.040 0.203-69.080 300.96c-0.484 2.019-0.762 4.337-0.762 6.72 0 16.569 13.431 30 30 30 0.001 0 0.002 0 0.002 0h548.54c0.018 0 0.040 0 0.062 0 16.569 0 30-13.431 30-30 0-2.383-0.278-4.701-0.803-6.924l0.041 0.204-69.2-300.96c-3.143-13.46-15.037-23.334-29.239-23.34h-0.001zM409.18 366.667h362.5l55.34 240.96h-473.2zM444 38.667c-63.491 0-114.96 51.469-114.96 114.96s51.469 114.96 114.96 114.96c63.491 0 114.96-51.469 114.96-114.96v0c-0.068-63.463-51.497-114.892-114.953-114.96h-0.007zM444 208.567c-30.354 0-54.96-24.606-54.96-54.96s24.606-54.96 54.96-54.96c30.354 0 54.96 24.606 54.96 54.96 0 0.007 0 0.014 0 0.021v-0.001c-0.034 30.336-24.623 54.917-54.958 54.94h-0.002zM736.84 38.667c-63.491 0-114.96 51.469-114.96 114.96s51.469 114.96 114.96 114.96c63.491 0 114.96-51.469 114.96-114.96v0c-0.068-63.463-51.497-114.892-114.953-114.96h-0.007zM736.84 208.567c-30.354 0-54.96-24.606-54.96-54.96s24.606-54.96 54.96-54.96c30.354 0 54.96 24.606 54.96 54.96 0 0.007 0 0.014 0 0.021v-0.001c-0.034 30.336-24.623 54.917-54.958 54.94h-0.002zM316.16 607.687c-13.176 0.001-24.368 8.497-28.397 20.309l-0.063 0.211-51.42 154.46h-94.88c-16.569 0-30 13.431-30 30s13.431 30 30 30v0h116.6c13.176-0.001 24.368-8.497 28.397-20.309l0.063-0.211 58.26-174.98c0.975-2.829 1.537-6.089 1.537-9.48 0-16.568-13.43-29.998-29.997-30v0z" />
<glyph unicode="&#xe927;" glyph-name="heart_heart_multimedia_like_romance_interface_love_heart_like_love_multimedia_romance_heart_like_love_multimedia_romance_heart_like_love_multimedia_romance_romance_multimedia_love_like" d="M510.26 97.947c-2.593 0.001-5.109 0.329-7.509 0.946l0.209-0.046c-106.6 26.74-194.8 72.34-262.12 135.54-57.86 54.28-99.020 121.2-119 193.48-14.4 52-17.42 105.34-8.72 154s28.22 89.3 56.52 117.6c71.32 71.32 178 72.26 252 41.58 33.86-14 62.62-34.84 83.2-60.2q2.78-3.42 5.34-6.94 2.58 3.52 5.36 6.94c20.56 25.36 49.34 46.18 83.2 60.2 74 30.68 180.76 29.74 252-41.58 28.3-28.3 47.84-68.96 56.52-117.6s5.68-102-8.72-154c-20-72.28-61.14-139.18-119-193.48-67.32-63.2-155.52-108.8-262.14-135.54-2.14-0.559-4.598-0.886-7.132-0.9h-0.008zM325.020 700.787c-47.34 0-88-18.7-112.96-43.66-42.060-42.16-55.46-129.86-32.4-213.28 17.060-61.64 52.4-118.96 102.24-165.72 58.28-54.7 135.080-94.78 228.36-119.22 93.3 24.44 170.1 64.52 228.38 119.22 49.82 46.76 85.18 104 102.22 165.72 23.080 83.42 9.76 171.12-32.38 213.28-37.28 37.26-109.46 60.56-186.7 28.56-51.040-21.14-81.52-59.26-81.52-102 0-16.569-13.431-30-30-30s-30 13.431-30 30v0c0 42.74-30.46 80.86-81.5 102-21.757 9.425-47.084 14.965-73.689 15.1h-0.051z" />
<glyph unicode="&#xe928;" glyph-name="finger_multimedia_like_hand_interface_interaction_finger_hand_multimedia_like_interaction_multimedia_like_hand_interaction_finger_multimedia_like_hand_interaction_finger_finger_interaction_hand_like_multimedia" d="M696.9 73.267h-173.3c-0.076 0-0.167 0-0.257 0-35.478 0-69.432 6.529-100.725 18.45l1.942-0.65-135 50.14c-11.389 4.429-19.315 15.305-19.315 28.032 0 16.569 13.431 30 30 30 3.665 0 7.176-0.657 10.422-1.86l-0.208 0.067 134.98-50.14c23.14-8.866 49.907-14 77.874-14 0.101 0 0.201 0 0.302 0h173.284c15.696 0 28.42 12.724 28.42 28.42s-12.724 28.42-28.42 28.42v0c-16.569 0-30 13.431-30 30s13.431 30 30 30v0h40.9c15.696 0 28.42 12.724 28.42 28.42s-12.724 28.42-28.42 28.42v0c-16.569 0-30 13.431-30 30s13.431 30 30 30v0h40.88c0.002 0 0.005 0 0.008 0 15.696 0 28.42 12.724 28.42 28.42 0 7.85-3.183 14.957-8.328 20.1v0c-5.103 5.139-12.172 8.32-19.984 8.32-0.041 0-0.081 0-0.122 0h0.006c-16.569 0-30 13.431-30 30s13.431 30 30 30v0h40.9c15.656 0.052 28.328 12.756 28.328 28.42 0 7.85-3.183 14.957-8.328 20.1v0c-5.105 5.148-12.18 8.337-19.999 8.34h-283.281c-0.011 0-0.024 0-0.037 0-16.569 0-30 13.431-30 30 0 5.321 1.385 10.318 3.815 14.651l-0.078-0.151c8.587 17.005 15.020 36.74 18.256 57.534l0.144 1.126c6.78 43.74-1.58 83.28-24.84 117.52-4.501 6.352-11.822 10.447-20.1 10.447-13.524 0-24.496-10.932-24.56-24.441v-0.006c0.98-102.76-46.5-177.44-137.3-216-3.601-1.651-7.812-2.614-12.248-2.614-16.569 0-30 13.431-30 30 0 12.536 7.689 23.276 18.609 27.762l0.2 0.073c37.44 16 64.72 39.5 81.1 70.16 13.36 25.020 20 55.3 19.66 90-0.3 37.92 23.080 69.92 59.44 81.24s73.62-1.56 94.9-32.92c49.42-72.72 40.5-148.2 26.96-194.42h239.36c48.828-0.006 88.409-39.591 88.409-88.42 0-34.557-19.824-64.484-48.721-79.028l-0.508-0.232c5.264-10.991 8.338-23.892 8.338-37.511 0-34.574-19.817-64.519-48.711-79.097l-0.507-0.232c5.266-10.993 8.342-23.897 8.342-37.519 0-34.583-19.827-64.535-48.734-79.109l-0.508-0.232c5.277-10.998 8.361-23.909 8.361-37.54 0-48.82-39.548-88.403-88.355-88.46h-0.005zM310 117.687h-171.74c-16.569 0-30 13.431-30 30v0 411.26c0 16.569 13.431 30 30 30v0h171.74c16.569 0 30-13.431 30-30v0-411.26c0-16.569-13.431-30-30-30v0zM168.32 177.687h111.68v351.26h-111.74z" />
<glyph unicode="&#xe929;" glyph-name="multimedia_pointer_location_pin_multimedia_place_location_map_pointer_pin_place_location_map_pointer_pin_multimedia_place_location_map_pointer_pointer_map_location_place_multimedia_pin_map_interface_pin_place_multimedia" d="M524.24 182.667c-0.003 0-0.007 0-0.011 0-5.381 0-10.431 1.417-14.798 3.898l0.148-0.078c-141.865 80.483-236.059 230.433-236.22 402.397v0.023q0 5 0.12 10c1.6 75 29.62 138.22 81.040 182.8 45.3 39.32 105.58 60.96 169.72 60.96s124.4-21.64 169.76-60.94c51.42-44.58 79.44-107.8 81.040-182.8v0q0.12-5 0.12-10c-0.166-172.006-94.385-321.968-233.995-401.246l-2.285-1.194c-4.216-2.402-9.262-3.818-14.639-3.82h-0.001zM524.24 782.667c-49.7 0-96-16.42-130.42-46.26-38.26-33.18-59.14-81.16-60.36-138.76 0-2.9 0-5.82 0-8.74 0.137-143.648 75.687-269.62 189.188-340.475l1.692-0.985c115.188 71.842 190.731 197.815 190.86 341.441v0.019c0 2.92 0 5.84-0.1 8.74v0c-1.22 57.6-22.1 105.58-60.36 138.76-34.5 29.84-80.74 46.26-130.5 46.26zM524.86 443.867c-79.673 0-144.26 64.587-144.26 144.26s64.587 144.26 144.26 144.26c79.673 0 144.26-64.587 144.26-144.26v0c-0.091-79.636-64.624-144.169-144.251-144.26h-0.009zM524.86 672.367c-46.536 0-84.26-37.724-84.26-84.26s37.724-84.26 84.26-84.26c46.536 0 84.26 37.724 84.26 84.26 0 0.007 0 0.014 0 0.021v-0.001c-0.057 46.509-37.75 84.195-84.256 84.24h-0.004zM524.24 38.667c-80.94 0-157.5 16.12-215.58 45.38-64.66 32.62-100.2 78.24-100.2 128.62 0 66.82 62.5 124.52 167.2 154.32 2.28 0.621 4.898 0.979 7.6 0.979 16.569 0 30-13.431 30-30 0-13.45-8.851-24.833-21.047-28.641l-0.213-0.057c-75.1-21.38-123.62-59.3-123.62-96.6 0-54 105.040-114 255.78-114s255.84 60 255.84 114c0 37.3-48.52 75.22-123.62 96.6-12.684 3.693-21.795 15.213-21.795 28.86 0 16.571 13.434 30.005 30.005 30.005 2.924 0 5.75-0.418 8.422-1.198l-0.212 0.053c104.7-29.8 167.2-87.5 167.2-154.32 0-50.38-35.58-96-100.2-128.62-58.080-29.26-134.64-45.38-215.56-45.38z" />
<glyph unicode="&#xe92a;" glyph-name="pointer_place_location_map_pointer_pin_pin_multimedia_pointer_map_place_location_map_pointer_multimedia_pin_multimedia_place_pin_interface_map_pointer_location_pin_multimedia_location_place_multimedia_place_location_map" d="M514 38.327c-5.378 0.002-10.424 1.418-14.788 3.898l0.148-0.078c-173.897 98.354-289.36 282.047-289.36 492.708 0 0.074 0 0.149 0 0.223v-0.012q0 6.16 0.12 12.28c2 90.96 35.86 167.56 98 221.5 54.96 47.6 128.060 73.82 205.88 73.82s150.9-26.22 205.8-73.82c62.2-54 96.12-130.54 98-221.5v0c0-4 0.14-8.18 0.14-12.28 0-0.089 0-0.194 0-0.299 0-106.872-29.746-206.797-81.412-291.946l1.412 2.505c-51.637-85.104-122.35-153.857-206.497-201.713l-2.803-1.467c-4.216-2.402-9.262-3.818-14.639-3.82h-0.001zM514 782.667c-63.38 0-122.52-21-166.5-59.16-49.060-42.52-75.82-103.88-77.38-177.44 0-3.64-0.12-7.32-0.12-11 0-0.051 0-0.112 0-0.173 0-182.322 96.787-342.037 241.784-430.57l2.216-1.257c71.176 43.522 129.261 101.798 171.292 170.915l1.268 2.245c44.877 73.834 71.44 163.101 71.44 258.572 0 0.094 0 0.189 0 0.283v-0.014c0 3.68 0 7.36-0.12 11-1.58 73.56-28.34 134.92-77.38 177.44-44 38.16-103.12 59.16-166.5 59.16zM514.78 345.467c-104.183 0-188.64 84.457-188.64 188.64s84.457 188.64 188.64 188.64c104.183 0 188.64-84.457 188.64-188.64v0c-0.114-104.137-84.503-188.526-188.629-188.64h-0.011zM514.78 662.727c-71.046 0-128.64-57.594-128.64-128.64s57.594-128.64 128.64-128.64c71.046 0 128.64 57.594 128.64 128.64 0 0.007 0 0.014 0 0.021v-0.001c-0.125 70.979-57.654 128.48-128.632 128.56h-0.008z" />
<glyph unicode="&#xe92b;" glyph-name="multimedia_multimedia_magnifier_search_interface_zoom_magnifying_zoom_search_magnifying_magnifier_interface_magnifier_search_multimedia_zoom_magnifying_magnifier_search_multimedia_zoom_magnifying_magnifier_search_multimedia_zoom_magnifying_m" d="M442.24 159.807c-0.178 0-0.389-0.001-0.599-0.001-95.752 0-182.43 38.845-245.137 101.637l-0.004 0.004c-135.5 135.5-135.5 356 0 491.48s356 135.5 491.48 0c62.926-62.874 101.851-149.761 101.851-245.74 0-191.853-155.527-347.38-347.38-347.38-0.074 0-0.148 0-0.222 0h0.011zM442.24 794.587c-0.163 0-0.355 0.001-0.548 0.001-79.189 0-150.881-32.101-202.772-84v0c-112-112.12-112-294.52 0-406.64 52.312-53.821 125.394-87.216 206.275-87.216 158.804 0 287.54 128.736 287.54 287.54 0 80.862-33.378 153.928-87.108 206.171l-0.067 0.065c-51.901 51.995-123.652 84.16-202.915 84.16-0.142 0-0.285 0-0.427 0h0.022zM442.24 274.347c-128.527 0.088-232.686 104.3-232.686 232.84 0 128.594 104.246 232.84 232.84 232.84s232.84-104.246 232.84-232.84c0-64.335-26.093-122.577-68.273-164.718l-0.002-0.002c-42.031-42.086-100.125-68.12-164.301-68.12-0.147 0-0.295 0-0.442 0h0.023zM442.24 680.067c-95.431-0.063-172.769-77.44-172.769-172.88 0-95.479 77.401-172.88 172.88-172.88s172.88 77.401 172.88 172.88c0 47.767-19.373 91.009-50.689 122.299l-0.001 0.001c-31.213 31.25-74.353 50.58-122.007 50.58-0.103 0-0.206 0-0.309 0h0.016zM829.64 37.787c-0.064 0-0.14 0-0.217 0-22.578 0-43.013 9.174-57.781 23.998l-165.862 165.882c-5.431 5.431-8.79 12.933-8.79 21.22 0 16.574 13.436 30.010 30.010 30.010 8.287 0 15.789-3.359 21.22-8.79l165.78-165.86c4.020-4.25 9.698-6.894 15.994-6.894 12.15 0 22 9.85 22 22 0 6.296-2.645 11.975-6.884 15.985l-165.87 165.87c-5.431 5.431-8.79 12.933-8.79 21.22 0 16.574 13.436 30.010 30.010 30.010 8.287 0 15.789-3.359 21.22-8.79l165.86-165.86c14.849-14.841 24.035-35.348 24.035-58 0-45.287-36.713-82-82-82-0.012 0-0.024 0-0.037 0h0.002z" />
<glyph unicode="&#xe92c;" glyph-name="multimedia_settings_gear_setting_setting_interface_options_gear_settings_multimedia_settings_gear_options_interface_setting_multimedia_gear_settings_setting_options_multimedia_multimedia_options_gear_settings_setting_multimedia_options_setti" d="M587.8 38.667h-120.74c-0.002 0-0.004 0-0.007 0-15.455 0-28.181 11.687-29.821 26.706l-0.012 0.134-8.94 84.18c-14.568 4.98-26.628 10.090-38.263 15.92l1.763-0.8-65.78-53.2c-5.099-4.133-11.666-6.636-18.818-6.636-8.269 0-15.756 3.345-21.183 8.756l-85.379 85.379c-5.41 5.426-8.756 12.913-8.756 21.182 0 7.152 2.503 13.719 6.68 18.874l-0.044-0.056 53.22 65.86c-5.043 9.88-10.159 21.939-14.492 34.365l-0.648 2.135-84.32 9c-15.148 1.651-26.833 14.37-26.84 29.819v120.761c0.007 15.45 11.692 28.169 26.706 29.808l0.134 0.012 84.18 8.94c4.981 14.561 10.097 26.62 15.937 38.253l-0.797-1.753-53.22 65.86c-4.133 5.099-6.636 11.666-6.636 18.818 0 8.269 3.345 15.756 8.756 21.183l85.379 85.379c5.426 5.41 12.913 8.756 21.182 8.756 7.152 0 13.719-2.503 18.874-6.68l-0.056 0.044 65.86-53.2c9.872 5.030 21.932 10.14 34.356 14.47l2.144 0.65 8.94 84.18c1.623 15.181 14.363 26.9 29.839 26.9 0.021 0 0.043 0 0.064 0h120.737c0.002 0 0.004 0 0.007 0 15.455 0 28.181-11.687 29.821-26.706l0.012-0.134 8.92-84.18c14.578-4.98 26.644-10.090 38.286-15.921l-1.766 0.801 65.84 53.2c5.099 4.133 11.666 6.636 18.818 6.636 8.269 0 15.756-3.345 21.183-8.756l85.379-85.379c5.41-5.426 8.756-12.913 8.756-21.182 0-7.152-2.503-13.719-6.68-18.874l0.044 0.056-53.22-65.86c5.026-9.862 10.142-21.921 14.483-34.342l0.657-2.158 84.18-8.94c15.14-1.661 26.814-14.376 26.82-29.819v-120.761c0-0.017 0-0.037 0-0.058 0-15.42-11.634-28.123-26.603-29.81l-0.137-0.013-84.18-8.94c-4.998-14.579-10.114-26.638-15.946-38.275l0.806 1.775 53.22-65.86c4.133-5.099 6.636-11.666 6.636-18.818 0-8.269-3.345-15.756-8.756-21.183l-85.379-85.439c-5.426-5.41-12.913-8.756-21.182-8.756-7.152 0-13.719 2.503-18.874 6.68l0.056-0.044-65.84 53.2c-9.877-5.030-21.943-10.14-34.374-14.47l-2.146-0.65-8.92-84.18c-1.652-15.153-14.378-26.84-29.833-26.84-0.031 0-0.061 0-0.092 0h0.005zM494 98.667h66.78l8.18 77.12c1.366 12.483 10.213 22.577 21.91 25.771l0.21 0.049c22.919 6.205 42.969 14.769 61.467 25.686l-1.147-0.626c4.328 2.564 9.539 4.079 15.104 4.079 7.187 0 13.784-2.527 18.951-6.742l-0.054 0.043 60.32-48.74 47.22 47.22-48.82 60.14c-4.172 5.112-6.699 11.709-6.699 18.896 0 5.565 1.515 10.776 4.156 15.243l-0.076-0.14c10.27 17.34 18.809 37.379 24.581 58.56l0.399 1.72c3.246 11.912 13.349 20.762 25.707 22.108l0.133 0.012 77.1 8.2v66.78l-77.1 8.2c-12.491 1.358-22.594 10.208-25.791 21.91l-0.049 0.21c-6.169 22.907-14.709 42.954-25.605 61.446l0.625-1.146c-2.564 4.328-4.079 9.539-4.079 15.104 0 7.187 2.527 13.784 6.742 18.951l-0.043-0.054 48.74 60.32-47.22 47.22-60.32-48.74c-5.112-4.172-11.709-6.699-18.896-6.699-5.565 0-10.776 1.515-15.243 4.156l0.14-0.076c-17.339 10.26-37.378 18.799-58.555 24.579l-1.725 0.401c-11.907 3.243-20.754 13.337-22.108 25.686l-0.012 0.134-8.1 77.020h-66.82l-8.18-77.12c-1.368-12.488-10.225-22.584-21.93-25.771l-0.21-0.049c-22.882-6.208-42.898-14.772-61.363-25.685l1.143 0.625c-4.328-2.564-9.539-4.079-15.104-4.079-7.187 0-13.784 2.527-18.951 6.742l0.054-0.043-60.26 48.82-47.2-47.22 48.76-60.32c4.165-5.11 6.688-11.701 6.688-18.882 0-5.571-1.518-10.787-4.164-15.257l0.076 0.139c-10.25-17.338-18.787-37.376-24.576-58.548l-0.404-1.732c-3.243-11.907-13.337-20.754-25.686-22.108l-0.134-0.012-77.12-8.2v-66.76l77.12-8.2c12.483-1.366 22.577-10.213 25.771-21.91l0.049-0.21c6.191-22.882 14.722-42.9 25.589-61.378l-0.629 1.158c2.569-4.331 4.088-9.547 4.088-15.118 0-7.181-2.523-13.772-6.731-18.937l0.043 0.055-48.74-60.22 47.22-47.22 60.34 48.74c5.112 4.172 11.709 6.699 18.896 6.699 5.565 0 10.776-1.515 15.243-4.156l-0.14 0.076c17.334-10.264 37.366-18.803 58.538-24.58l1.722-0.4c11.915-3.236 20.772-13.332 22.128-25.686l0.012-0.134zM899.42 380.287v0zM527.42 257.947c-100.905 0.011-182.7 81.814-182.7 182.72 0 100.913 81.807 182.72 182.72 182.72s182.72-81.807 182.72-182.72v0c-0.114-100.875-81.864-182.618-182.73-182.72h-0.010zM527.42 563.387c-67.768-0.011-122.7-54.951-122.7-122.72 0-67.776 54.944-122.72 122.72-122.72s122.72 54.944 122.72 122.72v0c-0.080 67.751-54.987 122.652-122.734 122.72h-0.006z" />
<glyph unicode="&#xe92d;" glyph-name="avatar_avatar_account_multimedia_multimedia_avatar_profile_person_account_interface_user_user_multimedia_account_profile_interface_multimedia_profile_person_avatar_account_account_avatar_person_profile_multimedia_person_profile_user_person" d="M516.88 312.667c-0.043 0-0.093 0-0.144 0-36.777 0-70.484 13.146-96.678 34.996l0.242-0.196c-71.061 59.237-115.955 147.785-115.955 246.817 0 3.933 0.071 7.849 0.211 11.747l-0.016-0.564 1.18 33.36c3.95 113.583 96.977 204.16 211.16 204.16s207.211-90.578 211.15-203.8l0.010-0.36 1.18-33.36c0.124-3.334 0.195-7.25 0.195-11.183 0-99.033-44.894-187.58-115.441-246.4l-0.515-0.417c-25.952-21.654-59.659-34.8-96.436-34.8-0.051 0-0.101 0-0.152 0h0.008zM458.6 393.567c15.691-13.066 36.059-20.997 58.28-20.997s42.589 7.931 58.428 21.117l-0.148-0.12c57.766 48.451 94.234 120.663 94.234 201.392 0 2.943-0.048 5.874-0.145 8.794l0.011-0.425-1.26 33.34c-3.045 81.16-69.574 145.8-151.2 145.8s-148.156-64.64-151.192-145.524l-0.008-0.276-1.18-33.36c-0.083-2.469-0.131-5.371-0.131-8.284 0-80.764 36.499-153.004 93.903-201.124l0.408-0.333zM758.88 38.667h-484c-16.569 0-30 13.431-30 30v0 108.16c0 0.072 0 0.157 0 0.243 0 105.823 68.166 195.725 162.984 228.192l1.697 0.505c3.039 1.135 6.55 1.792 10.214 1.792 16.569 0 30-13.431 30-30 0-13.419-8.81-24.78-20.962-28.615l-0.212-0.058c-72.512-24.798-123.72-92.354-123.72-171.87 0-0.046 0-0.091 0-0.137v0.007-78.22h424v78.16c0 0.039 0 0.084 0 0.13 0 79.516-51.208 147.073-122.445 171.49l-1.275 0.38c-12.364 3.892-21.174 15.254-21.174 28.672 0 16.569 13.431 30 30 30 3.665 0 7.176-0.657 10.422-1.86l-0.208 0.067c96.514-32.972 164.68-122.874 164.68-228.697 0-0.085 0-0.171 0-0.256v0.013-108.1c0-16.569-13.431-30-30-30v0z" />
<glyph unicode="&#xe92e;" glyph-name="navigation_arrow_back_multimedia_arrows_arrows_navigation_arrow_left_back_multimedia_arrow_navigation_arrows_multimedia_back_left_arrow_navigation_left_back_multimedia_arrows_navigation_arrow_left_back_multimedia_left_arrows_interface" d="M706 38.667c-0.004 0-0.009 0-0.014 0-8.281 0-15.778 3.355-21.207 8.78l-369.78 369.8c-5.427 5.429-8.784 12.927-8.784 21.21s3.357 15.781 8.784 21.21l369.78 369.8c5.43 5.432 12.933 8.793 21.22 8.793 16.57 0 30.003-13.433 30.003-30.003 0-8.282-3.356-15.781-8.783-21.21l-348.58-348.58 348.58-348.58c5.433-5.43 8.794-12.932 8.794-21.22 0-16.569-13.431-30-30-30-0.005 0-0.010 0-0.014 0h0.001z" />
<glyph unicode="&#xe92f;" glyph-name="navigation_navigation_interface_arrow_multimedia_forward_navigation_forward_arrow_right_multimedia_arrows_navigation_forward_arrow_right_multimedia_arrows_navigation_forward_arrow_right_multimedia_arrows_right_multimedia_arrows_right_arrow_a" d="M404.2 38.667c-16.566 0.004-29.994 13.434-29.994 30 0 8.288 3.361 15.79 8.793 21.22l348.58 348.58-348.58 348.58c-5.21 5.389-8.421 12.74-8.421 20.841 0 16.569 13.431 30 30 30 8.101 0 15.452-3.211 20.85-8.429l369.792-369.792c5.427-5.429 8.784-12.927 8.784-21.21s-3.357-15.781-8.784-21.21l-369.8-369.8c-5.428-5.425-12.926-8.78-21.206-8.78-0.005 0-0.010 0-0.014 0h0.001z" />
<glyph unicode="&#xe930;" glyph-name="letter_mail_multimedia_interface_communication_message_letter_communication_mail_multimedia_communication_mail_multimedia_letter_message_message_multimedia_mail_communication_message_letter_multimedia_mail_communication_message_letter" d="M882.26 126.667h-744c-16.569 0-30 13.431-30 30v0 504c0 16.569 13.431 30 30 30v0h744c16.569 0 30-13.431 30-30v0-504c0-16.569-13.431-30-30-30v0zM168.26 186.667h684v444h-684zM510.26 266.667c-8.169 0.001-15.576 3.267-20.985 8.565l0.005-0.005-372 364c-5.563 5.452-9.011 13.043-9.011 21.44 0 16.575 13.436 30.011 30.011 30.011 8.178 0 15.592-3.271 21.005-8.576l-0.005 0.005 350.98-343.44 351.020 343.44c5.408 5.3 12.822 8.571 21 8.571 16.575 0 30.011-13.436 30.011-30.011 0-8.397-3.448-15.988-9.006-21.435l-0.005-0.005-372-364c-5.405-5.293-12.813-8.56-20.984-8.56-0.013 0-0.025 0-0.038 0h0.002zM138.26 126.667c-16.52 0.064-29.888 13.471-29.888 30 0 8.819 3.805 16.749 9.863 22.238l0.025 0.023 267.74 241.92c5.363 5.081 12.624 8.205 20.615 8.205 16.569 0 30-13.431 30-30 0-9.066-4.021-17.193-10.378-22.693l-0.038-0.032-267.84-242c-5.286-4.753-12.315-7.66-20.023-7.66-0.027 0-0.054 0-0.081 0h0.004zM882.24 126.667c-7.712 0.013-14.736 2.95-20.024 7.762l0.024-0.022-267.84 242c-5.785 5.48-9.385 13.217-9.385 21.795 0 16.569 13.431 30 30 30 7.503 0 14.362-2.754 19.622-7.307l-0.038 0.032 267.84-242c6.083-5.512 9.888-13.442 9.888-22.26 0-16.569-13.431-30-30-30-0.031 0-0.062 0-0.093 0h0.005z" />
<glyph unicode="&#xe931;" glyph-name="phone_multimedia_communication_call_communication_call_cell_telephone_phone_phone_telephone_telephone_cell_call_communication_multimedia_telephone_interface_communication_cell_call_multimedia_phone_cell_cell_call_communication_multimedia_pho" d="M697.46 38.547c-33.062 0.253-65.013 4.505-95.55 12.295l2.75-0.595c-104.86 25.3-212.84 89.48-304 180.72s-155.42 199.24-180.72 304c-26.64 110.2-7.64 204.48 53.44 265.56l17.44 17.44c15.267 15.238 36.343 24.66 59.62 24.66s44.353-9.423 59.621-24.662l100.219-100.199c15.247-15.263 24.677-36.34 24.677-59.62s-9.43-44.357-24.678-59.621l-59.199-59.179c28.38-49.8 66.98-99.64 112.6-145.26s95.5-84.24 145.28-112.62l59.18 59.2c15.256 15.262 36.336 24.702 59.62 24.702s44.364-9.44 59.62-24.702l100.2-100.2c15.251-15.258 24.684-36.332 24.684-59.61s-9.432-44.352-24.684-59.61v0l-17.46-17.44c-43.060-43.14-102.66-65.26-172.66-65.26zM250.44 782.667c-0.035 0-0.077 0-0.119 0-6.672 0-12.709-2.723-17.059-7.118l-0.002-0.002-17.46-17.44c-45.74-45.74-59.1-120-37.62-208.98 22.74-94.26 81.28-192.2 164.82-275.72s181.46-142 275.74-164.82c89-21.48 163.22-8.12 208.96 37.62l17.44 17.44c4.397 4.4 7.116 10.478 7.116 17.19s-2.719 12.79-7.117 17.19l-100.18 100.2c-4.4 4.397-10.478 7.116-17.19 7.116s-12.79-2.719-17.19-7.117l-75.020-75.020c-5.429-5.432-12.932-8.793-21.219-8.793-5.034 0-9.779 1.24-13.945 3.431l0.164-0.079c-61.5 31.8-123.5 78.1-179.3 133.9s-102 117.76-133.88 179.26c-2.117 4.005-3.359 8.755-3.359 13.794 0 8.281 3.355 15.778 8.78 21.206v0l75.040 75.020c4.397 4.4 7.116 10.478 7.116 17.19s-2.719 12.79-7.117 17.19l-100.2 100.22c-4.373 4.398-10.428 7.12-17.119 7.12-0.028 0-0.057 0-0.085 0h0.004zM729.5 399.207c-16.569 0-30 13.431-30 30v0c-0.125 109.582-88.92 198.384-198.487 198.52h-0.013c-16.569 0-30 13.431-30 30s13.431 30 30 30v0c142.54 0 258.5-116 258.5-258.52 0-16.569-13.431-30-30-30v0zM856.3 399.207c-16.569 0-30 13.431-30 30v0c0 179.38-146 325.32-325.3 325.32-16.569 0-30 13.431-30 30s13.431 30 30 30v0c212.46 0 385.3-172.86 385.3-385.32 0-16.569-13.431-30-30-30v0z" />
</font>
</defs>
</svg>
